<svg xmlns="http://www.w3.org/2000/svg" xmlns:xlink="http://www.w3.org/1999/xlink" width="33.8" height="43.1" viewBox="0 0 33.8 43.1"><defs><style>.a{fill:none;}.b{fill:#edb777;}.c{fill:#5fe1ff;}.d{fill:#36bfd6;}.e{fill:#63af28;}.f{fill:#34941a;}.g{clip-path:url(#a);}.h{fill:#ffe5ba;}.i{clip-path:url(#b);}.j{fill:#f7c98b;}.k{clip-path:url(#c);}.l{clip-path:url(#d);}.m{clip-path:url(#e);}</style><clipPath id="a" transform="translate(-0.3 0)"><rect class="a" y="23" width="14.4" height="20.09"/></clipPath><clipPath id="b" transform="translate(-0.3 0)"><rect class="a" y="23" width="10.8" height="20.09"/></clipPath><clipPath id="c" transform="translate(-0.3 0)"><rect class="a" x="20" y="23" width="14.1" height="20.09"/></clipPath><clipPath id="d" transform="translate(-0.3 0)"><rect class="a" x="23.5" y="23" width="10.6" height="20.09"/></clipPath><clipPath id="e" transform="translate(-0.3 0)"><rect class="a" x="6.3" width="10.2" height="12.06"/></clipPath></defs><path class="b" d="M30.5,30.1V25.8a1.3,1.3,0,0,0-1.4-1.1.9.9,0,0,0-.8.9c-.1.8,0,6.5,0,6.5Z" transform="translate(-0.3 0)"/><path class="b" d="M3.8,30.1V25.8a1.3,1.3,0,0,1,1.5-1.1,1,1,0,0,1,.8.9c.1.8-.1,6.5-.1,6.5Z" transform="translate(-0.3 0)"/><path class="c" d="M29.6,26.5A12.3,12.3,0,0,1,17.2,38.8H15.9l-1.2-.2A12.4,12.4,0,0,1,4.9,26.5a10.1,10.1,0,0,1,.4-2.9,1.4,1.4,0,0,1,.2-.6l.3-.9a13.6,13.6,0,0,1,1-2.1l1.4-1.8a12.2,12.2,0,0,1,1.7-1.5,7.6,7.6,0,0,1,1.9-1.2h.1a11.2,11.2,0,0,1,5.3-1.3A12.2,12.2,0,0,1,29.4,24.8c.1.4.1.7.2,1.1Z" transform="translate(-0.3 0)"/><path class="d" d="M29.6,26.5A12.3,12.3,0,0,1,17.2,38.8H15.9l-1.2-.2A12.4,12.4,0,0,1,4.9,26.5a10.1,10.1,0,0,1,.4-2.9c0,.2,2.2,8.1,10.6,9.1s13.6-5.1,13.5-6.6.1-.1.2-.2Z" transform="translate(-0.3 0)"/><path class="e" d="M14.7,38.6A12.4,12.4,0,0,1,4.9,26.5v-.4a.4.4,0,0,1,.1-.3v-.6H5v-.2c.1-.1.1-.1.1-.2a1.3,1.3,0,0,1,.1-.6h0a.8.8,0,0,1,.1-.4,1.4,1.4,0,0,1,.2-.6l.3-.9c.2.3.5.7.8.7s1-.3,1.1.3.5.3.9.6,2.4.4,2.9,1.5-.9,2.5-.3,3.2.8.8.8,1.2.6.3.9.7,2.5.1,2.5,1.2-.1.9-.3,1.1a.5.5,0,0,0-.2.4c-.1.4.2,1,0,1.5S15.7,37.7,14.7,38.6Z" transform="translate(-0.3 0)"/><path class="e" d="M28.6,27.2c.1.2.1.3.2.4.4,1.8-1.2,4.3-1.5,4s-1,.1-1.5.1-.3-.5-.5-1L25,30c-.6-.5-2.4.8-2-.7s.9-3.6.5-4.2a1.9,1.9,0,0,0-1.9-1c-1,0-1.2-.4-1.8-1.1s-2.7-.4-3.3-.4-.7-.7-1.3-.7S14.6,23,14.1,23s.1-1.4.2-1.7-.8-1.5-1-2a8.4,8.4,0,0,1,.3-1.8c-.1-.4-.3-.6-1-.9s-.6-.7-.7-1.1a11.3,11.3,0,0,1,5.4-1.3A12.2,12.2,0,0,1,29.4,24.8C29.3,25.3,27.9,25.5,28.6,27.2Z" transform="translate(-0.3 0)"/><path class="f" d="M27.3,31.6c-.3-.3-1,.1-1.5.1s-.3-.5-.5-1a12.2,12.2,0,0,0,3.5-3.1C29.2,29.4,27.6,31.9,27.3,31.6Z" transform="translate(-0.3 0)"/><path class="f" d="M14.7,38.6A12.4,12.4,0,0,1,4.9,26.5v-.4a.4.4,0,0,1,.1-.3v-.6H5v-.2c.1-.1.1-.1.1-.2a1.3,1.3,0,0,1,.1-.6h0a.8.8,0,0,1,.1-.4c0,.1,2.1,7.6,9.8,9a.5.5,0,0,0-.2.4c-.1.4.2,1,0,1.5S15.7,37.7,14.7,38.6Z" transform="translate(-0.3 0)"/><g class="g"><path class="h" d="M14.3,36.5v6a.8.8,0,0,1-.6.6H9.4a.7.7,0,0,1-.4-.6V39.6L2.1,32.3a1.4,1.4,0,0,1-.2-.6L.3,24.6S0,23.5,1,23.3h.2a1.3,1.3,0,0,1,1.2.7l1.1,5.5L7,32.6a10.8,10.8,0,0,0,1.8,0c.2,0,.1-.7.1-.7L7.5,29.6a1,1,0,0,1,.6-1.5,1.1,1.1,0,0,1,1.3.4l4.3,6.3A2.4,2.4,0,0,1,14.3,36.5Z" transform="translate(-0.3 0)"/></g><g class="i"><path class="j" d="M10.7,39.5v3.4H9.4a.7.7,0,0,1-.4-.6V39.7c0-.1,0-.1-.1-.2L2.2,32.3a1.6,1.6,0,0,1-.4-.7l-1.5-7S0,23.5,1,23.3h.3l1.6,7.7H3l7.7,8.2Z" transform="translate(-0.3 0)"/></g><g class="k"><path class="h" d="M20,36.5v6c.1.5.7.6.7.6h4.2a1,1,0,0,0,.5-.6V39.6l6.8-7.3.3-.6,1.6-7.1a1,1,0,0,0-.8-1.3h-.2a1.3,1.3,0,0,0-1.2.7l-1.1,5.5-3.5,3.2a10.8,10.8,0,0,1-1.8,0c-.1,0-.1-.7-.1-.7s1.3-2,1.4-2.3.3-1.3-.5-1.5a1.2,1.2,0,0,0-1.4.4s-3.6,5.5-4.3,6.3A3.1,3.1,0,0,0,20,36.5Z" transform="translate(-0.3 0)"/></g><g class="l"><path class="j" d="M23.6,39.5v3.4a.1.1,0,0,0,.1.1H25a1.1,1.1,0,0,0,.4-.6v-3l6.8-7.2a1.5,1.5,0,0,0,.3-.7l1.6-7a1,1,0,0,0-.8-1.3h-.2l-1.7,7.7h0l-7.7,8.2A.1.1,0,0,0,23.6,39.5Z" transform="translate(-0.3 0)"/></g><path class="e" d="M19.2,25.4a2.2,2.2,0,0,0-.3,1.6c.3.8.6-.2,1-.5s.8,0,1.4-.2.7-1.1.3-1.2a5.1,5.1,0,0,0-1.7-.1C19.8,25.1,19.5,25.5,19.2,25.4Z" transform="translate(-0.3 0)"/><g class="m"><path class="f" d="M6.5,0S5.9,8.3,9.7,10.8s6.1.2,6.1.2,1.7-5.8-2.3-7.3S7.2,2,6.5,0Z" transform="translate(-0.3 0)"/></g><path class="f" d="M25.7,5.3s-1,5.7-3.9,6.8-4.1-.7-4.1-.7-.3-4.3,2.6-4.7S24.9,6.5,25.7,5.3Z" transform="translate(-0.3 0)"/><path class="e" d="M16.8,11.6h.4v2.6h-.4Z" transform="translate(-0.3 0)"/><path class="e" d="M8,3.8s3.5,6.5,8.8,7.8h.4s5.2-2,7.1-4.7c.1-.1-1.8,2.1-7.1,4.3C17.2,11.2,14.6,12,8,3.8Z" transform="translate(-0.3 0)"/><path class="e" d="M7.4,5.3s1.8,1.2,2.6,1l.2.3A3.9,3.9,0,0,1,7.4,5.3Z" transform="translate(-0.3 0)"/><path class="e" d="M9.1,8s2,.7,2.7.2l.3.3A4.2,4.2,0,0,1,9.1,8Z" transform="translate(-0.3 0)"/><path class="e" d="M10.1,3.8s.7,2.1.2,2.8l.3.3A4.5,4.5,0,0,0,10.1,3.8Z" transform="translate(-0.3 0)"/><path class="e" d="M11.8,5.7s.7,2.1.2,2.8l.3.2A4.2,4.2,0,0,0,11.8,5.7Z" transform="translate(-0.3 0)"/><path class="e" d="M13.8,7.2s.7,2.1.2,2.8l.3.3A4.5,4.5,0,0,0,13.8,7.2Z" transform="translate(-0.3 0)"/><path class="e" d="M10.9,9.9s2.1.4,2.8-.1l.2.2A3.9,3.9,0,0,1,10.9,9.9Z" transform="translate(-0.3 0)"/><path class="e" d="M24,8.4s-1.2.5-1.6.3h-.2A2.6,2.6,0,0,0,24,8.4Z" transform="translate(-0.3 0)"/><path class="e" d="M22.7,9.8s-1.3.2-1.6-.2h-.2A2.5,2.5,0,0,0,22.7,9.8Z" transform="translate(-0.3 0)"/><path class="e" d="M22.6,7.2s-.7,1.1-.5,1.6H22A2,2,0,0,1,22.6,7.2Z" transform="translate(-0.3 0)"/><path class="e" d="M21.4,8.1s-.7,1.2-.5,1.7h-.1A2.2,2.2,0,0,1,21.4,8.1Z" transform="translate(-0.3 0)"/><path class="e" d="M20,8.8s-.6,1.2-.4,1.6l-.2.2A2.7,2.7,0,0,1,20,8.8Z" transform="translate(-0.3 0)"/><path class="e" d="M21.4,10.7s-1.3,0-1.6-.4h-.2A2.5,2.5,0,0,0,21.4,10.7Z" transform="translate(-0.3 0)"/></svg>