<svg xmlns="http://www.w3.org/2000/svg" xmlns:xlink="http://www.w3.org/1999/xlink" width="40.9" height="49.1" viewBox="0 0 40.9 49.1"><defs><style>.a{fill:none;}.b{clip-path:url(#a);}.c{fill:#b7834c;}.d{fill:#7f7f7f;}.e{fill:#40332a;}.f{fill:#81a45d;}.g{clip-path:url(#c);}.h{fill:#f7e9c7;}</style><clipPath id="a" transform="translate(0 6.9)"><rect class="a" width="41" height="42.18"/></clipPath><clipPath id="c" transform="translate(0 6.9)"><rect class="a" x="0.3" width="37.7" height="34.55"/></clipPath></defs><g class="b"><path class="c" d="M40.8,25.3c0-.2.2-.4.1-.6a4.3,4.3,0,0,0-.1-.5c0-.3-.1-.6,0-.8h0c0-.1-.1-.1-.2-.1h-.3c-.2-.1-.3-.1-.4,0H38.6c0-.1.1-.1.1-.2s0-.4,0-.6,0-.4,0-.7h0a.2.2,0,0,1,0-.3v-.5h0v-.4c0-.2-.1-.4,0-.6s0-.4,0-.7a.4.4,0,0,0,0-.5,4.5,4.5,0,0,1,.1-1.1c0-.1,0-.1-.1-.2h0a.8.8,0,0,0,.1-.4,2.8,2.8,0,0,1-.1-.9c0-.2.1-.3,0-.5s.1-.8.1-1.2V14c.1-.1.1-.1,0-.2s0-.5,0-.7V9.9c.3,0,.5-.3.6-.6s0-.3,0-.4V8.1a4.9,4.9,0,0,1-.1-1.2V6.3c-.1-.1,0-.3-.1-.3h0c0-.2-.1-.4-.1-.7s0-.4-.1-.6V4.2c0-.1-.1-.2-.1-.3s-.1-.2-.1-.4l-.3-.7-.3-.6-.5-.7c0-.1-.2-.2-.3-.3s-.2-.3-.3-.3L36.5.4a1.1,1.1,0,0,0-.8-.1h-2c-.2,0-.4-.2-.5,0s-.1,0-.1,0h-5c-.1-.1-.2-.2-.3-.1H26.4c-.2-.1-.5.1-.8-.1h-.3c0-.1-.1-.1,0-.1s.1-.2.1-.4h0c.2-.4.4-.7.3-1.1a.1.1,0,0,1,.1-.1v-.2a.4.4,0,0,0,0-.5h.1c0-.2,0-.3-.1-.4v-.2a1.3,1.3,0,0,0-.1-.6c0-.1,0-.2-.1-.2h0c-.1-.2,0-.5-.3-.6h0c0-.2-.2-.4-.3-.6h-.2c0-.2-.1-.2-.2-.2h-.1c.1-.1.1-.2,0-.2l-.2-.2c-.1-.1-.1-.2-.3-.2h-.1a2,2,0,0,0-.9-.5l-.3-.2c-.2,0-.4-.2-.6-.1H21c-.3-.1-.5.2-.8.1h-.3c-.2-.1-.4.1-.5.1H19l-.8.5h0l-.8.8-.7.9c-.1.1-.1.3-.3.4h0a2.9,2.9,0,0,1-.2.9v.7c0,.1,0,.1-.1.2a.4.4,0,0,0,.1.3h0c-.1.1,0,.2,0,.3s.2.3.1.5a.4.4,0,0,0,.1.3c.1.2.1.4.2.5s-.3-.1-.4.1h-.1c-.2-.2-.5,0-.7-.1h-.5c-.1,0-.3.2-.4,0H4.7L4.3.3,3.8.8a2.1,2.1,0,0,1-.4.6l-.2.5L3,2.2c-.1.1-.1.3-.2.4l-.3.6c-.1.2-.1.4-.2.6s-.1.5-.1.7a6.4,6.4,0,0,1-.2.7,4.9,4.9,0,0,0,.1,1.2V9.3c0,.2,0,.5.3.6h0c0,.2.1.1.2.2H4.1v0h8.6c.2.1.4.2.5,0h.9c.1.1.2,0,.2-.1l.4.2H34.9c.1.1.1,0,.1-.1h2.7c0,.2.1.5,0,.7s.1.4,0,.5a2.7,2.7,0,0,1,0,.9v.6c0,.1-.1.3,0,.5v1.3c0,.2-.1.4,0,.6s-.1.5-.1.7a2.7,2.7,0,0,1,0,.9v.7a.9.9,0,0,1,0,.7v.3c-.1.1,0,.1.1.1h.2c-.1,0-.2-.1-.2,0s-.1.2-.1.4.1.4,0,.6h0c.1.1.1.2,0,.2a.2.2,0,0,0,0,.3v.6a2.1,2.1,0,0,1,0,.8h0v1.6c0,.1.1.1.2.1s-.2,0-.2-.1h-.2c-.1,0-.2,0-.2-.1h-.5c0-.1.1-.3,0-.4h0a.2.2,0,0,0,0-.3c-.1-.2,0-.5,0-.7s0-.1,0-.1h0c-.1-.1,0-.2,0-.3v-.3h0v-.2c0-.2.1-.4,0-.6h0c.1-.2-.1-.3.1-.4a.1.1,0,0,0-.1-.1c-.1,0,0-.1,0-.1a.6.6,0,0,0,.1-.6,1.2,1.2,0,0,0-1-.2h-.1c0-.1-.2,0-.2-.1s.1-.2.1-.4a.5.5,0,0,1,.3-.5h0c.1-.1.1-.3.2-.5a.3.3,0,0,0,.1-.2v-.2a1.5,1.5,0,0,0,.2-.9v-.6a4,4,0,0,0,0-1.1c.1-.1,0-.2,0-.3H32.8c-.1,0-.1.1-.1.2h0c-.1,0-.1.1-.1.2s.1.5.1.8a7.5,7.5,0,0,0,0,1.5c0,.2-.1.3.1.4h0v.3l.2.3a2.5,2.5,0,0,0,.4.7c.1,0,.1.1,0,.1s0,.3.1.4H30.9c-.1-.1-.2.1-.3,0H27.9c-.1.1-.3-.1-.5,0H25c-.2-.1-.3-.1-.4,0h-.2c-.1,0-.1-.1-.1-.2a.1.1,0,0,1,0-.2v-.3c0-.1-.1-.2-.1-.3s0-.3-.2-.3h-.7c-.1,0-.2.1-.1.2v.5a1.3,1.3,0,0,0-.1.6v.5a.4.4,0,0,0-.1.3v.4a.6.6,0,0,1-.1.4h0c.1.1.1.1.1.2a1.1,1.1,0,0,0-.1.5c.1.1.1.2,0,.4s0,.3,0,.5a.1.1,0,0,0,0,.2,3.3,3.3,0,0,0,0,1h-.7c-.1.1-.1,0-.2,0s.1-.1,0-.2a2.7,2.7,0,0,0,0-.9.3.3,0,0,0-.3-.3H17.9c0-.1-.1-.2-.1-.3h-.1l-.3-.4-.8-1-.2-.2c-.1,0-.3.2-.2.3a.9.9,0,0,0,.3.6l.3.3c.2.1.2.3.4.4a.2.2,0,0,1,.2.2c0,.1.1,0,.1.1h-.1a2.7,2.7,0,0,1-.9,0h-.9c-.1,0-.1.1-.1.2s0,.6.1.8a.1.1,0,0,0,0,.2H14.5v-.2h0v-.8h0V22h0c-.1-.2-.1-.2-.3-.2h-2v.3c0,.1,0,.2-.1.2v1.1c-.1.1-.2,0-.3,0s-.2-.1-.2.1h-.1a.5.5,0,0,1,.1-.3v-.8h0s-.1-.1,0-.1-.1-.2,0-.2-.2-.4-.3-.4H9.5c-.1.1,0,.1.1.1s-.2.1-.1.2a.3.3,0,0,1-.1.2v1.2c-.2.1-.4,0-.6,0s-.5-.1-.8,0H7.9c-.1-.1,0-.2,0-.3a2.2,2.2,0,0,1,0-.8,2.5,2.5,0,0,0-.1-.8V20H7.5c-.1.1-.2.1-.2.3H7.1v-.2A.1.1,0,0,0,7,20c0-.1,0-.1-.1-.1s-.1,0-.2.1a.1.1,0,0,1-.1.1v.2c-.1,0-.1-.1-.1-.2a.1.1,0,0,1-.1-.1c-.1-.1-.1-.1-.2,0l-.3.3H5.7L5.5,20c0-.1,0-.1-.1-.1s-.1,0-.1.1,0,.1-.1.1l-.2.3L4.7,20a.2.2,0,0,0-.2-.2c-.1,0-.2,0-.1.1v.4c.1.2,0,.4,0,.7v1.8c0,.2-.1.3-.1.4s.1.2,0,.2H4.1c-.2.1-.4-.1-.5,0s-.2.1-.2,0,.1,0,.2,0V21.7a.2.2,0,0,1,0-.3.1.1,0,0,0,0-.2V21c.1-.2,0-.4,0-.6a2.5,2.5,0,0,1,.1-.8h0a.2.2,0,0,1,0-.3h.8c.1-.2.2-.1.4-.1h.5c.1,0,.2-.1.2,0h.5c0-.1,0-.1.1-.1s-.1.1-.1.2H7.3c.1,0,.2-.2.2-.3s-.1-.3,0-.4,0-.9-.1-1.3a1.1,1.1,0,0,1,.1-.5h0c-.1-.2,0-.3,0-.5s-.1-.6-.1-1a3.4,3.4,0,0,0-.1-1h.1a2.5,2.5,0,0,1-.1-.8v-.2c-.1-.1,0,0,0-.1v-.3a.7.7,0,0,1-.1-.5h0c0-.2-.1-.3-.3-.2H6.6c-.3.2-.6.1-.9.1h-2c.1-.1,0-.1,0-.2V10.1H2.6v.2c0,.2.1.4,0,.6h0a.2.2,0,0,1,0,.3v.3H.8c0,.1-.1.1-.1.2s.1.2.1.4a1.3,1.3,0,0,0-.1.6.6.6,0,0,1,.1.4,2.2,2.2,0,0,0-.1.8,2.7,2.7,0,0,1,0,.9c0,.2.1.5,0,.7h0a1.1,1.1,0,0,1,0,.8v1.7c0,.3.1.5,0,.7s0,.3.2.4.3-.1.5,0,0-.2.1-.2,0,.1.1.1h.9c0,.1.1.1.1.2a1.3,1.3,0,0,0-.1.6v.6a.4.4,0,0,1,.1.3,1.4,1.4,0,0,0-.1.9c.1,0,.1.1,0,.1s0,.3,0,.5,0,.3,0,.5-.1.3,0,.4H.4c0,.1-.1,0-.2,0s-.1,0-.1,0-.1.2,0,.2,0,.1,0,.1,0,.2,0,.3v1.6c0,.2.1.3,0,.4a.2.2,0,0,0,.3.1H.7c.2-.1.4,0,.6,0s.4,0,.7,0H1.9a4,4,0,0,1,0,1.1.4.4,0,0,0,.1.3.6.6,0,0,0-.1.4V29c.2.1.3,0,.5,0s-.3.1-.5,0v.2c0,.1.1.3,0,.4v.2a2.2,2.2,0,0,1,0,.8v.2H2A2,2,0,0,0,2,32v.2c-.1.1-.1.2-.1.4s0,.2,0,.3v2.4c0,.1-.1.1,0,.2s0,.3,0,.4v.2c0,.1-.1.2,0,.3v2.4a2.2,2.2,0,0,1,0,.8v2.1c0,.2,0,.3.2.3a.1.1,0,0,1,.1.1H4.8c.1,0,.3-.1.5,0h.1c.1-.1.2,0,.3,0h4.8a.4.4,0,0,0,.4-.2c-.1.2,0,.2.1.2h1a.1.1,0,0,1,.2,0h6.1c.1,0,.2-.1.2,0H26c.2,0,.4-.1.5,0h6.7a2.1,2.1,0,0,1,.8,0h.7a.1.1,0,0,1,.1-.1c.1.2.2.1.3.1a.6.6,0,0,1,.6,0h.2c0-.1.1-.1.2-.1h3.1c.2,0,.3-.2.3-.4s0-.2,0-.3-.1-.5.1-.7h0a1.2,1.2,0,0,1,0-1h0c0-.1-.2-.3-.1-.4a2.2,2.2,0,0,0,0-.8,2.5,2.5,0,0,1,.1-.8.1.1,0,0,0-.1-.1h0v-.3h0v-.5c-.1-.2,0-.4,0-.6V35c0-.1-.2-.2,0-.3h0a.1.1,0,0,1-.1-.1.6.6,0,0,0,.1-.4c-.1,0-.2,0-.2.1h0c0-.1.1-.1.2-.1a.4.4,0,0,0-.1-.3v-.4a1.1,1.1,0,0,0,0-.8v-.3a.8.8,0,0,1,0-.7h0v-.7c.1-.1.1-.2-.1-.3v-.3a.4.4,0,0,0,0-.5c0-.2-.1-.4,0-.5s.1-.2.1-.4v-.2a3.4,3.4,0,0,1-.1-1c.1-.2,0-.3,0-.4s.2-.3,0-.4h0a.8.8,0,0,0,.1-.4c0-.1,0-.2-.1-.2H40c0-.1,0-.1.1-.1s.1.1.2,0,.3-.1.5,0h.1a.7.7,0,0,0-.1-.5Z" transform="translate(0 6.9)"/></g><path class="d" d="M36.7,19.5c-.1,0,0-.1,0-.1a.6.6,0,0,0,.1-.6,1.2,1.2,0,0,0-1-.2H30.9c-.1-.1-.2.1-.3,0H27.9c-.1.1-.3-.1-.5,0H25c-.2-.1-.3-.1-.4,0s-.1.5-.1.7v1.9c-.1.1,0,.2-.1.1h-.1v-.2a1.5,1.5,0,0,0,.1-.7c0-.5.1-.9.1-1.4v-.4c-.1,0-.1-.1-.1-.2a.1.1,0,0,1,0-.2v-.3c0-.1-.1-.2-.1-.3s0-.3-.2-.3h-.7c-.1,0-.2.1-.1.2v.5a1.3,1.3,0,0,0-.1.6v.5a.4.4,0,0,0-.1.3v.4a.6.6,0,0,1-.1.4h0c.1.1.1.1.1.2a1.1,1.1,0,0,0-.1.5c.1.1.1.2,0,.4s0,.3,0,.5a.1.1,0,0,0,0,.2,3.3,3.3,0,0,0,0,1h.7c.2,0,.4-.1.5,0a.2.2,0,0,0,0-.3c0-.1.1-.2.1-.4v-.9h.2c.1,0,.1.1,0,.1v1.6h7c.2,0,.3-.1.4,0h.4c0-.1.1-.1.1,0h.6a2.7,2.7,0,0,1,.9,0h2.6c.1,0,.2-.1.3,0s.1-.3,0-.4h0a.2.2,0,0,0,0-.3c-.1-.2,0-.5,0-.7s0-.1,0-.1h0c-.1-.1,0-.2,0-.3v-.3h0v-.2c0-.2.1-.4,0-.6h0c.1-.2-.1-.3.1-.4A.1.1,0,0,0,36.7,19.5Zm-.3,1c-.1.5,0,1-.1,1.5H36a.4.4,0,0,1,.1-.3h.1c-.1,0-.1,0-.1-.1v-2c0-.1-.1-.2-.3-.2h-.5a.1.1,0,0,1,.1-.1h.7c.1,0,.1,0,.1.1h.1v.5C36.3,20.1,36.4,20.3,36.4,20.5Zm-3.7-5.6a7.5,7.5,0,0,0,0,1.5c0,.2-.1.3.1.4h.5c.1.1.2,0,.3,0a2.7,2.7,0,0,0,.9,0h.8l.9-.2a1.5,1.5,0,0,0,.2-.9v-.6a4,4,0,0,0,0-1.1c.1-.1,0-.2,0-.3H32.8c-.1,0-.1.1-.1.2h0c-.1,0-.1.1-.1.2S32.7,14.6,32.7,14.9Zm3-.5c0-.1,0-.2.1-.2v.2a1.7,1.7,0,0,0,.1.7v1.1a.1.1,0,0,1-.1.1h-.1V16h0V14.4Zm-2.3,3.8c.1,0,.1-.1,0-.1a2.5,2.5,0,0,1-.4-.7l-.2-.3h1.7l1.3-.2h.4a.3.3,0,0,1-.1.2c-.1.2-.1.4-.2.5h0a.5.5,0,0,0-.3.5H33.4ZM17.8,21.9h-.4a.2.2,0,0,0-.2-.2c-.2-.1-.2-.3-.4-.4l-.3-.3a.9.9,0,0,1-.3-.6c-.1-.1.1-.3.2-.3l.2.2.8,1,.3.4Z" transform="translate(0 6.9)"/><path class="e" d="M37.6,19.7h0c.1-.2,0-.4,0-.6s0-.3.1-.4.1,0,.2,0h-.2c-.1,0-.2,0-.1-.1v-.3a.9.9,0,0,0,0-.7v-.7a2.7,2.7,0,0,0,0-.9c0-.2.1-.5.1-.7s0-.4,0-.6V13.2c-.1-.2,0-.4,0-.5v-.6a2.7,2.7,0,0,0,0-.9c.1-.1,0-.3,0-.5s0-.5,0-.7h1.1v3.2c0,.2-.1.5,0,.7s.1.1,0,.2v.2c0,.4-.1.8-.1,1.2s0,.3,0,.5a2.8,2.8,0,0,0,.1.9.8.8,0,0,1-.1.4h0c.1.1.1.1.1.2a4.5,4.5,0,0,0-.1,1.1.4.4,0,0,1,0,.5c0,.3.1.5,0,.7s0,.4,0,.6v.4h0v.5a.2.2,0,0,0,0,.3h0c0,.3-.1.5,0,.7s-.1.4,0,.6-.1.1-.1.2h0a2.2,2.2,0,0,0-.8,0c-.1,0-.2,0-.2-.1V21.6h0a2.1,2.1,0,0,0,0-.8v-.6a.2.2,0,0,1,0-.3C37.7,19.9,37.7,19.8,37.6,19.7Zm1.9,19.5c-.2-.1-.3,0-.5,0h-.1c-.1-.1-.2,0-.3,0H36.4c-.3.1-.5-.1-.8.1H29.9c-.2-.1-.5.1-.7-.1H27.3c-.2,0-.3.1-.5,0h-.1c-.2.1-.5,0-.7,0H24.2c-.1.1-.3-.1-.5,0s-.2,0-.4,0h-.5a1.1,1.1,0,0,0-.8,0H18.6a5.7,5.7,0,0,0-1.3,0H16a2.1,2.1,0,0,0-.8,0H12c0,.1-.1.1-.2,0H9.7a1.7,1.7,0,0,0-1,0h-3a2.2,2.2,0,0,0-.8,0h-1c-.1,0-.1-.1-.1,0H1.9v.2h.9c.4.1.8-.1,1.1,0a.6.6,0,0,0,.6,0h.3c.2.1.4-.1.7,0s.3,0,.5,0h4.1c.1,0,.2.1.3,0h6.1c.1-.2.2-.1.2-.1h7a2.1,2.1,0,0,1,.8,0H30a.3.3,0,0,1,.4,0h.5c0-.1.1-.1.2-.1a.2.2,0,0,0,.3,0h.1c.2.2.5,0,.7.1h.6a.8.8,0,0,0,.7,0h2.1a.4.4,0,0,0,.5,0h1.1c.1,0,.1.1.2,0h2.2C39.6,39.5,39.4,39.3,39.5,39.2Zm0-2.1c-.2,0-.4.1-.6,0H37.4c-.1,0-.2.1-.4,0h-.1c-.3,0-.3,0-.3.2s-.2-.2-.3-.2-.1,0-.1,0-.4,0-.6,0-.4,0-.7,0-.4-.1-.6,0h-.1c-.1,0-.2-.1-.4,0h-2c-.1-.1-.1,0-.1.1a.1.1,0,0,1,.1.1h-.1c-.1-.1-.1-.2-.2-.2H27.8c0,.1-.1,0-.1,0s-.4.1-.7,0h0c.1.1.2.1.1.2H24.6a3.3,3.3,0,0,0-1,0h-.9c-.2,0-.4-.1-.5,0h-.3a.5.5,0,0,1-.5,0,.1.1,0,0,0-.2,0h-.5a1.7,1.7,0,0,1-1,0,2.1,2.1,0,0,1-.8,0,.1.1,0,0,1-.2,0h-.1a.1.1,0,0,0,.1.1h0c-.2-.2-.4-.1-.6-.1a.2.2,0,0,0-.3,0,3.3,3.3,0,0,1-1,0c-.2,0-.5-.1-.7,0s-.6-.1-.9.1H12.5c-.1.1-.3,0-.3.2s-.1-.1-.2-.1h-.3c-.2,0-.5-.1-.7,0h0c-.2-.1-.4,0-.6,0H8.9c-.3,0-.5.1-.7,0H7.6c-.2-.2-.4-.1-.4,0H7c-.2,0-.5-.1-.7,0H5.6c-.1,0-.2-.1-.3,0H1.9v.2h.8c.1,0,.2-.1.3,0s.2,0,.3,0H4.8c.1-.1.1,0,.1,0H6.8c.2,0,.5-.1.7,0H9.7c.2,0,.4.1.5,0s.5,0,.7,0h.7c0-.1.1-.1.2-.1s.1.1.2.1a.2.2,0,0,1,.3,0c.1,0,.2,0,.2-.2h0c-.1-.1,0-.1,0-.1h.1c0,.1,0,.1.2.2h.7a.6.6,0,0,0,.6,0H15c.2.1.5-.1.8,0h.5c.1,0,.3-.1.4,0h.2c.2-.1.4.1.6,0a.4.4,0,0,1,.5,0h1.1c.2-.1.4.1.6-.1h.5a.1.1,0,0,0,.1-.1h.1a1.6,1.6,0,0,0,.7,0h.5c0,.1,0,.1.1,0h5.8c.2,0,.4.1.5-.1h1.2a.6.6,0,0,1,.6,0h4.3c.1,0,.2.1.2,0s0-.1.1,0,0,.1,0,.1.5,0,.8,0H36c.2-.1.4.1.6,0s.2.2.1-.1h.1c.1.2.3.1.4.2s-.1-.2,0-.2h.3c0-.1-.1-.1,0-.1h1.3c.1,0,.2-.1.4,0h.3Zm-37.4-1H3.5c.2.1.5-.1.7.1h.4c0,.1,0,0,.1,0s.1-.1.2,0h0c.1-.1.2,0,.3,0s0,.1.1,0h.6a2.1,2.1,0,0,0,.8,0c.2.1.3,0,.4,0a2.7,2.7,0,0,0,.9,0H9.1c.2.1.4,0,.6,0h.1c.1-.1.2,0,.3,0h.3c.2,0,.4-.1.6,0h2.1a.5.5,0,0,1,.5,0h.2a.2.2,0,0,1,.3,0h2.3a2.7,2.7,0,0,1,.9,0,.9.9,0,0,1,.7,0h.9a1.1,1.1,0,0,0,.8,0h1.1c.3.1.5-.1.8,0s.1,0,.2,0h.3c.3.1.6-.1.8,0s.4.1.6,0,.2-.1.3,0h1.4c.2-.1.3.1.5,0s.3,0,.5,0h.2a1.4,1.4,0,0,1,.9,0c.2,0,.2,0,.2-.2a.1.1,0,0,0,.1.1h5.2c.2-.1.4.1.6,0h3.4a4.8,4.8,0,0,1,1.2,0h1.5v-.4h-.9c-.2,0-.4-.1-.6.1h-.4a.5.5,0,0,1-.5,0h-.4a2.1,2.1,0,0,1-.8,0H33.2c-.2-.1-.5,0-.7,0a.1.1,0,0,1,.1.1h-.1c-.1,0-.2-.2-.3-.1H32c-.2,0-.4-.1-.5,0h-.9c-.2,0-.4-.1-.6,0H27a2.2,2.2,0,0,1-.8,0c-.1.1-.3,0-.4,0h-.9a3.4,3.4,0,0,1-1,0c-.1.1-.2,0-.4,0H21.9a.4.4,0,0,1-.5,0h-.8c-.2,0-.4-.1-.6,0h-.3c-.2-.1-.4,0-.6,0s-.5,0-.7,0H5.4c-.1,0,.1.2,0,.2H5.3c0-.1-.1-.1-.2-.2s-.3.1-.4,0-.1,0-.1.1,0,.1-.1,0-.1-.1-.1,0-.4-.1-.6,0H3.6c-.2-.1-.6,0-.9,0H1.9v.2Zm27.3-8.4h1.7a.4.4,0,0,0,.4-.2.2.2,0,0,0,.2.2h7.7c.1-.2,0-.3,0-.4h-.1c-.2.1-.4-.1-.6,0h-.6c-.2,0-.3-.1-.4,0H31.5c-.1,0-.3.1-.4-.1H26.7c-.1,0-.3.1-.4,0H22.8c0,.1.1.1.1.2h-.2c0-.1,0-.1-.1-.1H18c-.2.1-.3,0-.5,0s-.1.1-.2,0h-.2c-.2.1-.4,0-.6,0a1.7,1.7,0,0,1-1,0H10.1a6.5,6.5,0,0,0-1.4,0H7.3c-.2.2-.4.1-.6.1H5.9a1.6,1.6,0,0,0-.7,0H4c0,.1.1.1.1.2s0,.1.1.1H6.7c.2,0,.3-.1.5,0H9.8a1.6,1.6,0,0,1,.7,0h.3c.1,0,.3-.1.4,0h1l.2.2a.6.6,0,0,1,.6,0h.7c.2,0,.4-.1.6,0s.5-.1.7,0h.7a2.2,2.2,0,0,1,.8,0h1.9a1.6,1.6,0,0,0,.7,0h.2a.8.8,0,0,0,.7,0,2.7,2.7,0,0,0,.9,0h6.3c.2.1.4-.1.5,0h.7c.1-.2.1.1.2,0h.8Zm-5.1,4.4a.8.8,0,0,1,.4.4h-.9c-.1,0-.3.1-.3-.1s-.4.1-.6.1a2.2,2.2,0,0,0-.8,0h-.9a2.7,2.7,0,0,1-.9,0h-.6a.4.4,0,0,1-.5,0H11.1c-.1,0-.2.1-.3,0H9c-.1.1-.2,0-.3,0H2V32H3.9a2.2,2.2,0,0,1,.8,0h.1a.5.5,0,0,1,.5,0H9.9c.1.1.2,0,.3,0a2.7,2.7,0,0,0,.9,0h1.4a1.6,1.6,0,0,1,.7,0H14c.1,0,.3-.1.4,0h.5c.2,0,.4-.1.6,0h3.6c.2.1.4,0,.6,0a3.4,3.4,0,0,0,1,0,3.4,3.4,0,0,0,1,0,2.7,2.7,0,0,0,.9,0c.1,0,.3.1.5,0h.5C23.9,32.1,24.1,32.3,24.3,32.1Zm-17.6,0ZM2.8,30.8h18c.1.1.3,0,.5,0h2.4c0-.1.1-.2,0-.3h-.5a.5.5,0,0,0-.5,0h-.2a3.3,3.3,0,0,0-1,0H10c-.2-.1-.4,0-.7,0H8.7a2.7,2.7,0,0,0-.9,0h-1a1.4,1.4,0,0,0-.9,0h-4v.2Zm-.4,3.6H7.5c.3,0,.5-.1.7,0h4.4a4.8,4.8,0,0,0,1.2,0,5.7,5.7,0,0,0,1.3,0c.2,0,.3.1.4,0s.4.1.6,0h.3c.1-.2.1-.1.2,0a.3.3,0,0,0,.4,0c-.2-.3-.2-.3-.5-.3h-.2a.1.1,0,0,1,0,.2c-.1-.1-.1-.2-.3-.2a.1.1,0,0,0,0,.2c-.2-.2-.2-.2-.5-.2s-.1.1-.2,0h-.4a3.3,3.3,0,0,1-1,0c-.2,0-.3.1-.4,0H11.6s-.1.1-.1,0h-.6c-.2,0-.4-.1-.6.1H7.1c-.2-.1-.4,0-.7,0s-.1-.1-.2-.1H2.8a2.7,2.7,0,0,1-.9,0v.3C2.1,34.3,2.2,34.4,2.4,34.4Zm.1-11h.7c.1,0,.2.1.4,0V21.7a.2.2,0,0,1,0-.3.1.1,0,0,0,0-.2V21c.1-.2,0-.4,0-.6a2.5,2.5,0,0,1,.1-.8h0a.2.2,0,0,1,0-.3H2.5c0,.1.1.1.1.2a1.3,1.3,0,0,0-.1.6v.6a.4.4,0,0,1,.1.3,1.4,1.4,0,0,0-.1.9c.1,0,.1.1,0,.1s0,.3,0,.5,0,.3,0,.5S2.4,23.3,2.5,23.4Zm4.9,2.8H2.5a4.8,4.8,0,0,0,1.2,0H4a.6.6,0,0,0,.6,0H5c.2.1.5,0,.7,0a7.5,7.5,0,0,0,1.5,0h4.6s0-.1-.2-.1H7.4ZM2.9,29.3h.2c.1,0,.3-.1.5,0s.5-.1.7,0h.3c.2,0,0-.2.1-.2s0,.2.1.2H6.4a.6.6,0,0,1,.6,0H8.4c0-.1-.1-.1,0-.2h.3c.1-.1,0-.1,0-.2a.1.1,0,0,0-.1-.1H5.3c-.1,0-.3-.1-.3.2s-.1-.2-.2-.2H4.3a1.6,1.6,0,0,1-.7,0h-1c-.3,0-.5.1-.7,0v.2Zm-.3-18v.3H3.7c.1-.1,0-.1,0-.2V10.1H2.6v.2c0,.2.1.4,0,.6h0a.2.2,0,0,1,0,.3ZM35.4,34.2a7.5,7.5,0,0,1,1.5,0h1.7a.3.3,0,0,1,.4,0h.5a.4.4,0,0,0-.1-.3H38a2.2,2.2,0,0,1-.8,0H36.1c-.2,0-.5.1-.7,0h0l-.6.2h-.3a.1.1,0,0,0,.1.1Zm3.9-1.9H37.4c-.2,0-.2.2-.2.3s.5,0,.7,0a4,4,0,0,0,1.1,0h.4a.4.4,0,0,0,.1-.3Zm.1-1.7H37.1c.1,0,.1.2.2.3h.4a4.8,4.8,0,0,0,1.2,0,.6.6,0,0,0,.6,0C39.6,30.8,39.6,30.7,39.4,30.6Zm.1-1.7h-.1c-.2,0-.4.1-.6,0H37.4c.1.1.2.3.3.2H39c.2-.1.3-.1.4,0s.1-.2.1-.4ZM2,27.8H3.4c.1,0,.3-.1.4,0s.2.1.2-.1H3.7c0-.1,0-.1-.2-.1h-1c-.2,0-.4.1-.6,0A.4.4,0,0,0,2,27.8Zm36.6-1.5h.6c.1.1.1,0,.2-.1h.1a.1.1,0,0,0-.1-.1H40c-.1-.1-.2-.2-.3-.1h-.2c-.2,0-.3,0-.4.2s-.1-.3-.2-.2-.1,0-.2,0h-.6c-.1.1,0,.1,0,.2h.2C38.3,26.3,38.4,26.4,38.6,26.3Zm-.5-.1Zm-15.3,0Zm0,0h10a2.8,2.8,0,0,0,1.3,0,4.8,4.8,0,0,0,1.2,0h1.2c.2,0,.5.1.7,0h.1c.1.1.2,0,.3,0h.5v.2H23s-.2,0-.1-.1,0-.1-.1-.1Zm14.4.1c.1-.1.1-.1,0-.2h0C37.1,26.2,37.2,26.2,37.2,26.3ZM10.1,29.1c0-.1-.1-.1-.2-.1H8.8c-.1,0-.1,0-.1.1h.9c.4-.1.7.1,1,0s.3,0,.4,0a3.4,3.4,0,0,1,1,0,3.4,3.4,0,0,1,1,0h.1c.1-.2.2-.1.3-.1a.6.6,0,0,0,.6,0c.3,0,.6.1.8,0h2a.6.6,0,0,1,.6,0,3.4,3.4,0,0,1,1,0h.5a1.7,1.7,0,0,0,1,0H20c.2.1.5.2.6-.2s0,.2,0,.3.4,0,.6,0a4.1,4.1,0,0,1,1.1,0h1.3c.2-.1.5,0,.8,0s.2-.1.2,0l.5-.3c-.1,0-.2-.1-.4,0H21.9c-.2,0-.4-.1-.5,0s-.1.1-.1,0a.1.1,0,0,0-.1-.1H18.5c-.3.1-.6-.1-.9,0H15.3c-.1,0-.2.1-.3,0s-.3,0-.4,0h-.1c0,.1.1.1,0,.2h-.1c-.2,0-.3-.1-.5,0a.3.3,0,0,1-.4,0H11c0,.2-.1.2-.1.1s-.1-.1-.2-.1h-.3c-.2,0-.2,0-.2.2Zm5.2-2.8a.1.1,0,0,1,.1-.1h1.5a.1.1,0,0,0,.1.1.1.1,0,0,1,0-.2h1.6c.1,0,.1.2.2.2s0-.2.1-.2h3.9c0,.2-.1.2-.3.2H18c-.1,0,0,0,0,.1H16c-.2,0-.4.1-.6,0Zm3.5,0Zm4-.1Zm-7.1-2.8h.2c0,.1,0,.1.1,0h2.3c.2.1.3,0,.5,0H22c0-.1.1-.1,0-.2H15.6a.1.1,0,0,0,0,.2ZM4.3,23.2c0,.1.1.2,0,.2s2.4.1,3.6,0,0-.2,0-.3-.3-.1-.5,0H4.3Zm5.1.2h.9c.2.1.4,0,.6,0h.6a.5.5,0,0,1,.1-.3H10.2c-.1-.1-.3,0-.4,0H9.4v.3Zm26.8,5.7h.5a.8.8,0,0,0,.7,0h0V29h-.1a.1.1,0,0,0-.1-.1h-.1c-.1,0-.2,0-.2.2s-.3-.2-.5-.2h-.1c-.2,0-.4.1-.6,0h0c-.1.1-.1,0-.2,0s-.1,0-.2-.1h0c.1.1.2.3.4.2h.5v-.2ZM12.8,23.4h1.7v-.2H12.8c-.2,0-.4.1-.5-.1h-.2v.3Zm1.5,2.8h-.1s0,.2-.1.1h-.6c-.2.1-.3,0-.5,0h.1c.1.2.3.1.4.1h.6c.2,0,.4.1.6-.1h.5c-.1-.2-.2-.2-.4-.2h-.4S14.4,26.3,14.3,26.2Zm10.1-2.9V21.7c.1,0,.1-.1,0-.1h-.2v.9c0,.2-.1.3-.1.4a.2.2,0,0,1,0,.3ZM12.1,26.4h.5c-.1,0-.2-.1-.4.1h-.4C11.9,26.3,11.9,26.4,12.1,26.4Zm22.8,2.5c-.1,0-.2.2-.3.1s.1,0,.2.1l.5.2h0ZM24.5,34c-.1,0,0-.1-.1-.1a2.7,2.7,0,0,1-.9,0h-.2a.6.6,0,0,0-.6,0H22a4,4,0,0,0-1.1,0H17c-.1,0-.1,0-.1.1l.5.2h2.7c.1-.1.1,0,.1,0h3.6c.2.1.4.1.5-.1h.1A.1.1,0,0,1,24.5,34Zm-.1.1Zm0,.1h2.7a2.7,2.7,0,0,1-.9,0c-.2.1-.5,0-.8,0h-.9c0,.1,0,.1-.1.1S24.3,34.2,24.4,34.2Zm.1-.2ZM1.6,15.4a.2.2,0,0,1,.4.1h.1l.3-.2c.3-.2.4-.2.6,0h.3l.2-.2h.7c.1.1.1,0,.1,0s0-.1,0-.1H2.6c-.2.1-.4.1-.6.3H1.9c.1-.1.1-.1,0-.2s-.1.1-.1.1H1.6c-.1.1-.2.1-.2.2ZM2,16.6c0-.1.1,0,.1,0h.5c.1,0,.1-.1.2,0s.3.2.5.1H2.9a.2.2,0,0,0-.4-.1H2.2c-.1,0-.2-.1-.2,0H1.4c0,.1,0,.1.1.2Zm1.9-2.9h0c0,.1.1.1,0,.1H3.7a.2.2,0,0,1-.3,0H3.3l-.5.2h-1c0-.1.1-.1,0-.1H1.7v.4H2.8l.5-.2h.8C4.1,13.6,4,13.7,3.9,13.7Zm-2.4-.9c0,.2.1.3.3.2h.3c.1.2.3.1.4,0h.7c.3,0,.5-.2.7,0s.1,0,.1-.1H4c-.2,0-.3-.2-.5-.1H3a.5.5,0,0,0-.6.1H1.8c-.1.2-.1.1-.2,0H1.4C1.4,12.7,1.5,12.7,1.5,12.8ZM2,18c.1-.1.2-.2.4-.1H3.5a.1.1,0,0,0,.2,0h.2a1.4,1.4,0,0,1-.9-.1H1.9c-.1-.2-.1-.1-.2,0h0c.1,0,.1-.1.1-.2S1.9,18.1,2,18Zm3.6-4.2h.1l-.2.2A.1.1,0,0,0,5.6,13.8Zm.3,3.7c0,.1-.1.1-.1,0H5.7c-.1.1-.1.1-.1.2l.2.2H6c.2-.1.3-.2.5-.1h.2a.1.1,0,0,0,.1-.1H5.9Zm.2-2.7H5.8c.1,0,.2-.2.3-.1h.4C6.4,14.8,6.2,14.7,6.1,14.8Zm0-2.1c.1-.1.3-.2.4-.1h.1l-.3-.2H6c-.1,0-.2,0-.2.2s.1.2.3.2Zm-.6,3.8h.2c.1-.1.3-.2.4,0h.3s.1-.1-.1-.1H6l-.5.2s-.1,0,0,.1ZM4.4,12.8c0-.1.1-.1.1-.2l-.3-.2h0C4.2,12.6,4.3,12.8,4.4,12.8Zm-.2.9h0Zm31.4,4.4H33.4c.1.1,0,.3.1.4h2.2s-.2,0-.2-.1S35.6,18.3,35.6,18.1Zm-1.1-.9,1.3-.2h.4v-.2l-.9.2h-.8a2.7,2.7,0,0,1-.9,0c-.1,0-.2.1-.3,0h-.5v.3Zm-22,5.1h2V22H12.2c0,.1,0,.2-.1.2Zm11.9-.8c.1.1,0,0,.1-.1V19.5c0-.2.1-.5.1-.7h-.2v.4c0,.5-.1.9-.1,1.4a1.5,1.5,0,0,1-.1.7v.2Zm-12.8.7H9.4v.2h2.2S11.5,22.2,11.6,22.2Zm5.9-.1h.4c0-.1-.1-.2-.1-.3h-.4C17.4,22.1,17.5,22,17.5,22.1Z" transform="translate(0 6.9)"/><g class="b"><path class="c" d="M39.6,40.6c-.2.2,0,.4-.1.7s.1.2,0,.3-.1.4-.3.4H36.1c-.1,0-.2,0-.2.1h-.2a.6.6,0,0,0-.6,0h-.3a.1.1,0,0,0-.1.1H34a2.1,2.1,0,0,0-.8,0H26.5c-.1-.1-.3,0-.5,0H18.5c0-.1-.1,0-.2,0H12.2a.1.1,0,0,0-.2,0H11c-.1,0-.2,0-.1-.2a.4.4,0,0,1-.4.2H8.2c-.2-.1-.4,0-.6,0H5.7c-.1,0-.2-.1-.3,0H5.3c-.2-.1-.4,0-.5,0H2.2a.1.1,0,0,0-.1-.1c-.2,0-.2-.1-.2-.3V39.8h2a.6.6,0,0,0,.6,0h.3c.2.1.4-.1.7,0s.3,0,.5,0h4.1c.1,0,.2.1.3,0h6.1c.1-.2.2-.1.2-.1h7a2.1,2.1,0,0,1,.8,0H30a.3.3,0,0,1,.4,0h.5c0-.1.1-.1.2-.1a.2.2,0,0,0,.3,0h.1c.2.2.5,0,.7.1h.6c.3,0,.5.1.7,0h2.1a.4.4,0,0,0,.5,0h1.1c.1,0,.1.1.2,0h.7a.2.2,0,0,0,.3,0h1.2a1.2,1.2,0,0,0,0,1Zm1.2-15.2a.7.7,0,0,1,.1.5h-.1c-.2-.1-.4,0-.5,0s-.1.1-.2,0-.1,0-.1.1-.2-.2-.3-.1h-.2c-.2,0-.3,0-.4.2s-.1-.3-.2-.2-.1.1-.2,0h-.6c-.1.1,0,.1,0,.2h.2c0,.1.1.2.3.1h.6l.2-.2h.1a.9.9,0,0,1-.1.5h0c.2.1.1.3,0,.4h-.1c-.2.1-.4-.1-.6,0h-.6c-.2,0-.3-.1-.4,0H31.5c-.1,0-.3.1-.4-.1H26.7c-.1,0-.3.1-.4,0H22.8c0,.1.1.1.1.2h-.2c0-.1,0-.1-.1-.1H18c-.2.1-.3,0-.5,0s-.1.1-.2,0h-.2c-.2.1-.4,0-.6,0a1.7,1.7,0,0,1-1,0H10.1a6.5,6.5,0,0,0-1.4,0H7.5c0-.1-.2-.1-.2-.1s-.4.1-.6.1H5.9a1.6,1.6,0,0,0-.7,0H4c0,.1.1.1.1.2s0,.1.1.1H6.7c.2,0,.3-.1.5,0H9.8a1.6,1.6,0,0,1,.7,0h.3c.1,0,.3-.1.4,0h1l.2.2a.6.6,0,0,1,.6,0h.7c.2,0,.4-.1.6,0s.5-.1.7,0h.7a2.2,2.2,0,0,1,.8,0h1.9a1.6,1.6,0,0,0,.7,0h.2a.8.8,0,0,0,.7,0,2.7,2.7,0,0,0,.9,0h6.3c.2.1.4-.1.5,0h.7c.1-.2.1.1.2,0h2.5a.4.4,0,0,0,.4-.2.2.2,0,0,0,.2.2h7.7a3.4,3.4,0,0,0,.1,1v.2h-.1c-.2,0-.4.1-.6,0H37.4c.1.1.2.3.3.2H39c.2-.1.3-.1.4,0s0,.3,0,.5a.4.4,0,0,1,0,.5v.3H37.1l-.2-.3h-.2l-.4-.4-.4-.3a.1.1,0,0,0-.1-.1l-.5-.2h0l-.4-.3c-.1,0-.2.2-.3.1h-.2l-1-.3c0-.1-.1,0-.2-.1h-.4l-.5-.2c-.2,0-.3.1-.5-.1h-.1c-.1.1-.2,0-.3,0h-.2c-.1.1-.2,0-.3-.1h-1a.6.6,0,0,0-.6,0H27.5c-.3.1-.7,0-1,.2l-.7.2h-.3l-.4.2c-.1,0-.2-.1-.4,0H21.9c-.2,0-.4-.1-.5,0s-.1.1-.1,0a.1.1,0,0,0-.1-.1H18.5c-.3.1-.6-.1-.9,0H15.3c-.1,0-.2.1-.3,0s-.3,0-.4,0h-.1c0,.1.1.1,0,.2h-.1c-.2,0-.3-.1-.5,0a.3.3,0,0,1-.4,0H11c0,.2-.1.2-.1.1s-.1-.1-.2-.1h-.3c-.2,0-.2,0-.2.2h-.1c0-.1-.1-.1-.2-.1H8.8c-.1,0-.1,0-.1.1h0a.1.1,0,0,0-.1-.1H5.3c-.1,0-.3-.1-.3.2s-.1-.2-.2-.2H4.3a1.6,1.6,0,0,1-.7,0h-1c-.3,0-.5.1-.7,0v-.8a.6.6,0,0,1,.1-.4H3.4c.1,0,.3-.1.4,0s.2.1.2-.1H3.7c0-.1,0-.1-.2-.1h-1c-.2,0-.4.1-.6,0a4,4,0,0,0,0-1.1h.6a4.8,4.8,0,0,0,1.2,0H4a.6.6,0,0,0,.6,0H5c.2.1.5,0,.7,0a7.5,7.5,0,0,0,1.5,0h4.6s0-.1-.2-.1H2c-.3,0-.5-.1-.7,0s-.4-.1-.6,0H.4a.2.2,0,0,1-.3-.1c.1-.1,0-.2,0-.4V24.1c0-.1.1-.2,0-.3s.1-.1,0-.1,0-.1,0-.2.1-.1.1,0,.2.1.2,0H3.2c.1,0,.2.1.4,0s.3.1.5,0h.2c1.2,0,2.4.1,3.6,0H8c.3-.1.5.1.8,0s.4.1.6,0h.9c.2.1.4,0,.6,0h.6s.1.1.1,0h.2c.1,0,.2.1.3,0h3.8c0,.1,0,.1.1,0h2.3c.2.1.3,0,.5,0H22c.1,0,.1.1.2,0h1.4c.2,0,.4-.1.5,0h7.3c.2,0,.3-.1.4,0h.4c0-.1.1-.1.1,0h.6a2.7,2.7,0,0,1,.9,0h2.6c.1,0,.2-.1.3,0h.5c0,.1.1.1.2.1h.2c0,.1.1.1.2.1a2.2,2.2,0,0,1,.8,0h1.3c.1-.1.2-.1.4,0h.3c.1,0,.2,0,.2.1h0c-.1.2,0,.5,0,.7s.1.4.1.6-.1.4-.1.6ZM35.3,29c.1.1.2.3.4.2h.5v-.2h.5a.8.8,0,0,0,.7,0h0V29h-.1a.1.1,0,0,0-.1-.1h-.1c-.1,0-.2,0-.2.2s-.3-.2-.5-.2h-.1c-.2,0-.4.1-.6,0h0c-.1.1-.1,0-.2,0s-.1,0-.2-.1ZM12.8,26.3h-.2c-.1,0-.2-.1-.4.1h-.4c.1.1.1.2.3.2h.7Zm2.4.1c-.1-.2-.2-.2-.4-.2h-.4s0,.1-.1,0h-.1s0,.2-.1.1h-.6c-.2.1-.3,0-.5,0h.1c.1.2.3.1.4.1h.6c.2,0,.4.1.6-.1h.5Zm7.6-.2H18.9c-.1-.1-.2-.1-.1.1s-.1-.2-.2-.2H17a.1.1,0,0,0,0,.2.1.1,0,0,1-.1-.1H15.4a.1.1,0,0,0-.1.1h.1c.2.1.4,0,.6,0h2c0-.1-.1-.1,0-.1h4.5C22.7,26.4,22.8,26.4,22.8,26.2ZM38,26.1h-.4c-.1,0-.2.1-.3,0h-.1c-.2.1-.5,0-.7,0s-.4,0-.6,0h-.6a4.8,4.8,0,0,1-1.2,0,2.4,2.4,0,0,1-1.2,0H22.8c.1,0,.1,0,.1.1s.1.1.1.1H38.2v-.2ZM1.9,35.5c-.1-.1,0-.1,0-.2v-.9c.2-.1.3,0,.5,0H7.5c.3,0,.5-.1.7,0h4.4a4.8,4.8,0,0,0,1.2,0,5.7,5.7,0,0,0,1.3,0c.2,0,.3.1.4,0s.4.1.6,0h.3c.1-.2.1-.1.2,0a.3.3,0,0,0,.4,0c-.2-.3-.2-.3-.5-.3h-.2a.1.1,0,0,1,0,.2c-.1-.1-.1-.2-.3-.2a.1.1,0,0,0,0,.2c-.2-.2-.2-.2-.5-.2s-.1.1-.2,0h-.4a3.3,3.3,0,0,1-1,0c-.2,0-.3.1-.4,0H11.6s-.1.1-.1,0h-.6c-.2,0-.4-.1-.6.1H7.1c-.2-.1-.4,0-.7,0s-.1-.1-.2-.1H2.8a2.7,2.7,0,0,1-.9,0V32.9c0-.1.1-.2,0-.3s0-.3.1-.4H8.7c.1,0,.2.1.3,0h1.8c.1.1.2,0,.3,0h8.1a.4.4,0,0,0,.5,0h.6a2.7,2.7,0,0,0,.9,0h.9a2.2,2.2,0,0,1,.8,0c.2,0,.4.1.6-.1s.2.1.3.1h.9l.4.3h.1l.7.4.9.4h.3l.4.2h-.4a2.7,2.7,0,0,1-.9,0c-.2.1-.5,0-.8,0h-.9c0,.1,0,.1-.1.1s-.1.1,0,.1h8.5l1-.2h.6a.1.1,0,0,0,.1.1h.8a7.5,7.5,0,0,1,1.5,0h.9c.1,0,.2-.1.3,0h.5a.3.3,0,0,1,.4,0h.5a.6.6,0,0,1-.1.4.1.1,0,0,0,.1.1h0c-.2.1,0,.2,0,.3v.5h-.9c-.2,0-.4-.1-.6.1h-.4a.5.5,0,0,1-.5,0h-.4a2.1,2.1,0,0,1-.8,0H33.2c-.2-.1-.5,0-.7,0a.1.1,0,0,1,.1.1h-.1c-.1,0-.2-.2-.3-.1H32c-.2,0-.4-.1-.5,0h-.9c-.2,0-.4-.1-.6,0H27a2.2,2.2,0,0,1-.8,0c-.1.1-.3,0-.4,0h-.9a3.4,3.4,0,0,1-1,0c-.1.1-.2,0-.4,0h-.9a.5.5,0,0,1-.5,0h-.2a.4.4,0,0,1-.5,0h-.8c-.2,0-.4-.1-.6,0h-.3c-.2-.1-.4,0-.6,0s-.5,0-.7,0H5.4c-.1,0,.1.2,0,.2H5.3c0-.1-.1-.1-.2-.2s-.3.1-.4,0-.1,0-.1.1,0,.1-.1,0-.1-.1-.1,0-.4-.1-.6,0H3.6c-.2-.1-.6,0-.9,0H1.9C1.9,35.8,2,35.6,1.9,35.5Zm15.5-1.2h6.4c.2.1.4.1.5-.1h.1a.1.1,0,0,1,.1-.1c-.1,0,0-.1-.1-.1a2.7,2.7,0,0,1-.9,0h-.2a.6.6,0,0,0-.6,0H22a4,4,0,0,0-1.1,0H17c-.1,0-.1,0-.1.1Zm22.1,3.2h-.3c-.2-.1-.3,0-.4,0H37.5c-.1,0,0,0,0,.1h-.3c-.1,0,0,.1,0,.2s-.3,0-.4-.2h-.1c.1.3-.1.1-.1.1s-.4-.1-.6,0h-.8c-.3,0-.6-.1-.8,0s.1-.1,0-.1-.1,0-.1,0-.1,0-.2,0H31.5c-.1.1-.1.1-.2,0a2.1,2.1,0,0,1-.8,0h-.7a.6.6,0,0,0-.6,0H28c-.1.2-.3.1-.5.1H21.7c-.1.1-.1.1-.1,0h-.5a1.6,1.6,0,0,1-.7,0h-.1a.1.1,0,0,1-.1.1h-.5c-.2.2-.4,0-.6.1H18a.4.4,0,0,0-.5,0c-.2.1-.4-.1-.6,0h-.2c-.1-.1-.3,0-.4,0h-.5c-.3-.1-.6.1-.8,0h-.9a.6.6,0,0,1-.6,0h-.7c-.2-.1-.2-.1-.2-.2h-.1s-.1,0,0,.1h0c0,.2-.1.2-.2.2a.2.2,0,0,0-.3,0c-.1,0-.2,0-.2-.1s-.2,0-.2.1h-.7c-.2,0-.5-.1-.7,0s-.3,0-.5,0H7.5c-.2-.1-.5,0-.7,0H4.9s0-.1-.1,0H3.3c-.1,0-.2-.1-.3,0s-.2,0-.3,0H1.9v.7a2.2,2.2,0,0,1,0,.8H3.8c0-.1,0,0,.1,0h1a2.2,2.2,0,0,1,.8,0h3a1.7,1.7,0,0,1,1,0h2.1c.1.1.2.1.2,0h3.2a2.1,2.1,0,0,1,.8,0h1.3a5.7,5.7,0,0,1,1.3,0H22a1.1,1.1,0,0,1,.8,0h.5c.2,0,.3.1.4,0s.4.1.5,0H26c.2,0,.5.1.7,0h.1c.2.1.3,0,.5,0h1.9c.2.2.5,0,.7.1h5.7c.3-.2.5,0,.8-.1h2.2c.1,0,.2-.1.3,0H39c.2,0,.3-.1.5,0a2.2,2.2,0,0,0,0-.8,2.5,2.5,0,0,1,.1-.8A.1.1,0,0,0,39.5,37.5Zm0-.1ZM1.9,36.9v1H5.3c.1-.1.2,0,.3,0h.7c.2-.1.5,0,.7,0h.2c0-.1.2-.2.4,0h.6c.2.1.4,0,.7,0h1.5c.2,0,.4-.1.6,0h0c.2-.1.5,0,.7,0H12c.1,0,.2,0,.2.1s.2-.1.3-.2h2.7c.3-.2.6,0,.9-.1s.5,0,.7,0a3.3,3.3,0,0,0,1,0,.2.2,0,0,1,.3,0c.2,0,.4-.1.6.1h0a.1.1,0,0,1-.1-.1h.1a.1.1,0,0,0,.2,0,2.1,2.1,0,0,0,.8,0,1.7,1.7,0,0,0,1,0h.5a.1.1,0,0,1,.2,0,.5.5,0,0,0,.5,0h.3c.1-.1.3,0,.5,0h.9a3.4,3.4,0,0,1,1,0h2.5c.1-.1,0-.1-.1-.2h0c.3.1.5-.1.7,0s.1.1.1,0h3.7c.1,0,.1.1.2.2h.1a.1.1,0,0,0-.1-.1c0-.1,0-.2.1-.1h2c.2-.1.3,0,.4,0h.1c.2-.1.4,0,.6,0s.5-.1.7,0,.4-.1.6,0,0-.1.1,0,.3,0,.3.2,0-.2.3-.2H37c.2.1.3,0,.4,0h1.5c.2.1.4,0,.6,0h0v-.5c-.1-.2,0-.4,0-.6H38a4.8,4.8,0,0,0-1.2,0H33.4c-.2.1-.4-.1-.6,0H27.6a.1.1,0,0,1-.1-.1c0,.2,0,.2-.2.2a1.4,1.4,0,0,0-.9,0h-.2c-.2,0-.3-.1-.5,0s-.3-.1-.5,0H23.8c-.1-.1-.2,0-.3,0s-.4-.1-.6,0-.5.1-.8,0h-.3c-.1,0-.1.1-.2,0s-.5.1-.8,0H19.7a1.1,1.1,0,0,1-.8,0H18a.9.9,0,0,0-.7,0,2.7,2.7,0,0,0-.9,0H14.1a.2.2,0,0,0-.3,0h-.2a.5.5,0,0,0-.5,0H11c-.2-.1-.4,0-.6,0h-.3c-.1,0-.3-.1-.3,0H9.7c-.2,0-.4.1-.6,0H8a2.7,2.7,0,0,1-.9,0H5.3c-.1.1-.1.1-.1,0s-.2-.1-.3,0h0c-.1-.1-.2-.2-.2,0s-.1.1-.1,0H4.2c-.2-.2-.5,0-.7-.1H1.9c0,.1-.1.2,0,.3Zm6.8-7.6H8.4c-.1.1,0,.1,0,.2H7a.6.6,0,0,0-.6,0H4.8c-.1,0,0-.2-.1-.2s.1.2-.1.2H4.3c-.2-.1-.4,0-.7,0s-.4,0-.5,0H1.9c0,.1.1.3,0,.4v.2a2.2,2.2,0,0,1,0,.8h4a1.4,1.4,0,0,1,.9,0h1a2.7,2.7,0,0,1,.9,0h.6c.3,0,.5-.1.7,0H21.5a3.3,3.3,0,0,1,1,0h.2c.2-.1.3,0,.5,0h.5a2.1,2.1,0,0,1,.6-1l.3-.3c0-.1-.1,0-.2,0s-.6-.1-.8,0H22.3a4.1,4.1,0,0,0-1.1,0c-.2,0-.4-.1-.6,0s.1-.2,0-.3-.4.3-.6.2h-.1a1.7,1.7,0,0,1-1,0h-.5a3.4,3.4,0,0,0-1,0,.6.6,0,0,0-.6,0h-2c-.2.1-.5,0-.8,0a.6.6,0,0,1-.6,0c-.1,0-.2-.1-.3.1H13a3.4,3.4,0,0,0-1,0,3.4,3.4,0,0,0-1,0c-.1,0-.3-.1-.4,0s-.6-.1-1,0H8.7C8.7,29.2,8.8,29.2,8.7,29.3ZM7.1,32H9.9c.1.1.2,0,.3,0a2.7,2.7,0,0,0,.9,0h1.4a1.6,1.6,0,0,1,.7,0H14c.1,0,.3-.1.4,0h.5c.2,0,.4-.1.6,0h3.6c.2.1.4,0,.6,0a3.4,3.4,0,0,0,1,0,3.4,3.4,0,0,0,1,0,2.7,2.7,0,0,0,.9,0c.1,0,.3.1.5,0h.5c.3-.1.5.1.7-.1l-.2-.3c-.2-.2-.2-.5-.3-.8a.1.1,0,0,1-.1-.1H21.3c-.2,0-.4.1-.5,0H2A2,2,0,0,0,2,32H3.9a2.2,2.2,0,0,1,.8,0h.1a.5.5,0,0,1,.5,0H7.1ZM2.1,8.3v1c0,.2,0,.5.3.6h0c0,.2.1.1.2.2H4.1V7.6c.1-.4,0-.8.1-1.2H3.5c-.2-.1-.4,0-.7,0H2.1V8.3ZM37.8,7.1V9.7c.1.1.1.1,0,.1h0V10h1c.3,0,.5-.3.6-.6s0-.3,0-.4V8.1a4.9,4.9,0,0,1-.1-1.2V6.3c-.1,0-.2,0-.2.2s0-.2-.1-.2a2.7,2.7,0,0,1-.9,0h-.3v.8ZM36.8,33l-.9.7h-.5c.2.1.5,0,.7,0h1.1a2.2,2.2,0,0,0,.8,0h1.4v-.4a1.1,1.1,0,0,0,0-.8H39a4,4,0,0,1-1.1,0c-.2,0-.5.1-.7,0Zm2.7-1.4v-.7a.6.6,0,0,1-.6,0,4.8,4.8,0,0,1-1.2,0h-.4a.4.4,0,0,0,.1.3c.1.3-.1.5,0,.8v.2h2.1a.8.8,0,0,1,0-.7ZM21.6,7.2V6.5h0c0-.1,0-.1-.2-.1h-.8a2.2,2.2,0,0,1-.8,0h-.2c0,.2.1.4,0,.6a.1.1,0,0,0,0,.2V9.5a1.3,1.3,0,0,0,.1.6h1.8c0-.1.1-.2.1-.4s.1-.6.1-.9-.1-.1-.1-.2A5.6,5.6,0,0,0,21.6,7.2ZM26,6.4h-.2c-.1.1-.2.1-.2,0h-.4c-.2.1-.4,0-.6,0s-.3,0-.5,0-.3,0-.3.2-.1.2,0,.2,0,.1,0,.2a.1.1,0,0,1,0,.2c0,.2.1.5.1.7s0,.4,0,.6h0c.1.1.1.1,0,.2h0c.1.1,0,.2,0,.3s-.1.1,0,.2V10h2V6.5Zm8.2,1.1a3.3,3.3,0,0,0,0,1,4.1,4.1,0,0,1,0,1.1V10h.7c.1.1.1,0,.1-.1h1.1V9c0-.2-.1-.4,0-.6s-.1-.6,0-.8V6.3H34.4c-.2,0-.2,0-.2.1v.4C34.1,7,34.2,7.3,34.2,7.5ZM12.5,3.6l.5.2c.3.1.6.1.8.3s.4.1.6.1h6.2c.2-.2.4,0,.6-.1h.6c.3,0,.5.1.7-.1h.3c.1,0,.3-.1.4,0h.2c.3-.2.7,0,1-.2h3.3l.6-.2h.2l.5-.2c.3-.1.4-.4.6-.6h-.1c-.1.3-.4.4-.6.5l-.6.2-.4.2h-.6c-.1.1-.2.2-.4.1h-.4c-.3,0-.7.2-1,.1h-.9a2.7,2.7,0,0,0-.9,0,.6.6,0,0,1-.7,0H15.3l-1-.2a3.2,3.2,0,0,1-.9-.3l-.6-.2-.9-.4c0,.1.1.2.1.3a1,1,0,0,0,.5.4Zm-.1,3.8a4.8,4.8,0,0,0,0,1.2c0,.5.1.9.1,1.3h.2c.2.1.4.2.5,0h.9c.1.1.2,0,.2-.1a2.2,2.2,0,0,1,0-.8c0-.1-.1-.3,0-.5a2.7,2.7,0,0,1,0-.9.3.3,0,0,0-.1-.2V6.4c-.1-.1-.3,0-.5,0h-.9c-.2,0-.3-.1-.5,0v.2c-.1.1,0,.3-.1.5s.1.2.1.3ZM8.9,9.1v1h1.6a.6.6,0,0,0,.1-.4V7.1a2,2,0,0,1,.1-.7H8.9a3.4,3.4,0,0,1-.1,1v.3c0,.2-.1.3-.1.5S8.9,8.8,8.9,9.1Zm21.8.9h1.6c.2-.2.1-.5.1-.7V7.9c.1-.2,0-.3,0-.5a2.8,2.8,0,0,1,.1-.9c0-.2-.2-.2-.3-.2s-.3.1-.5,0a2.2,2.2,0,0,1-.8,0c-.2-.1-.2,0-.2.2V8.2c0,.2-.1.5,0,.7Zm-3.4,0H29a7.5,7.5,0,0,0,0-1.5V7c.1-.2,0-.4,0-.6h-.5a.9.9,0,0,1-.7.1c-.1,0-.3.1-.4,0a.1.1,0,0,0-.1.1V10ZM5.5,8.2v1a2.7,2.7,0,0,1,0,.9H7.2c.1-.1,0-.3,0-.4V6.5c-.1-.2-.3-.1-.4-.1s-.5-.1-.7,0H5.5V8.2ZM16.8,10h.9c-.1-.2,0-.4,0-.5a.8.8,0,0,1,0-.7c0-.2-.1-.4-.1-.7a4,4,0,0,0,0-1.1V6.4h-.3c-.1.1.1.2,0,.3s-.1-.1,0-.2h-.7c-.1-.1-.1,0-.2,0s-.2,0-.2.1-.1-.2-.2-.1,0,.4,0,.6,0,.3,0,.4,0,.4,0,.6v2Zm.6-12h0c-.1-.2,0-.4,0-.6a1.4,1.4,0,0,1,.2-.6,1.9,1.9,0,0,1,.3-.8l.3-.5.2-.3a2.4,2.4,0,0,1,.8-.6l.7-.4a.8.8,0,0,1,.7-.2h1.3a2,2,0,0,1,.8.4l.8.5.5.7c.1.2.2.3.2.5s.2.3.2.4.2.4.1.6a.1.1,0,0,1,.1.1s.1.1,0,.3v.7a.4.4,0,0,1-.1.3l-.2.5c0,.2-.1.3-.2.5l-.4.6c-.1.4-.5.5-.7.7s-.3.3-.5.3-.4.4-.7.4H20.2l-.3-.2c-.3-.1-.6-.1-.8-.3s-.2-.3-.4-.3L18.4.6h0a.2.2,0,0,0-.2-.2L18,.1l-.3-.7a2.5,2.5,0,0,1-.2-.7.6.6,0,0,0-.1-.4c0-.1-.1-.2,0-.3Zm3.4.1a.4.4,0,0,0,.6-.2c.1-.1.1-.2.1-.4a.6.6,0,0,0-.1-.4s-.4-.2-.5-.1a.1.1,0,0,0-.1.1.1.1,0,0,1-.1-.1c-.1,0-.1,0-.1.1a.8.8,0,0,0-.2.4v.2c0,.1,0,.2.1.2a.1.1,0,0,0,.1.1Zm-.1,4.7V2.6c0-.2.1-.2.2-.2s.4-.1.6,0,.2.2.2.3a.9.9,0,0,1-.3.7h-.3c-.1.1-.2,0-.3,0s-.2-.2-.2-.3a.4.4,0,0,0,.1-.3Zm.2.3c0,.1,0,.1.1.1h.3c.1-.1,0-.2.1-.3h0a.1.1,0,0,0-.1-.1h-.4c.1.1,0,.2,0,.3s0,.1,0,.1Zm3.1,0a.2.2,0,0,0,.3,0c.1-.1.2-.1.2-.2V2.3c-.1-.1,0-.2-.2-.2s-.1.1-.1.2,0,.4,0,.5a.3.3,0,0,1-.3-.3.1.1,0,0,1-.1-.1h-.4a.9.9,0,0,1,0,.7c0,.1.1.2.2.1h.1V2.7c.2.1.2.3.3.4Zm-4.7.1c.2,0,.2,0,.2-.1a1.3,1.3,0,0,0,.1-.6V2a.1.1,0,0,1-.1-.1.1.1,0,0,0-.1.1c0,.1-.1.1,0,.2s-.1.1-.1.2-.2.1-.2.1H19s-.1,0,0-.1h0a.4.4,0,0,0-.1-.3c0-.1,0-.1-.1-.1s-.1.1-.1.2v.9h.2c0-.1,0-.2.1-.2h.2c0,.1.1.2,0,.3S19.2,3.2,19.3,3.2Zm-4.4-.3a1.3,1.3,0,0,0,.1-.6h.4l.4.2a.8.8,0,0,1-.2.4h.2c.1.1.1.2,0,.2s-.1.1-.1,0l-.4-.2c-.1-.1-.1-.1-.1.1s0,.2-.1.2S14.9,3,14.9,2.9Zm.3-.3h.5a.5.5,0,0,0-.4-.2A.4.4,0,0,0,15.2,2.6Zm12.5.5a.4.4,0,0,0,.1-.3V2.6h-.3c.1-.1.2-.2.3-.1h.2c-.2,0-.3-.1-.4,0a.4.4,0,0,0-.4.3.3.3,0,0,0,.3.3h.2a.1.1,0,0,1-.1.1c-.1.1-.2,0-.3,0h-.1c-.1.1-.1.1,0,.2h.6ZM23,2.8a.3.3,0,0,1-.3.3c-.1.1-.3.2-.4.1s-.3-.4-.1-.6.4-.2.6-.2.2.2.2.4Zm-.3-.2h-.2c-.1,0,0,.1-.1.1s-.1.1-.1.2a.1.1,0,0,0,.2,0h.2ZM16.4,3a.1.1,0,0,0,.1.1.7.7,0,0,0,.6.1c.1,0,.1,0,.1-.1h0c-.2,0-.4-.1-.6,0s.1-.1.1-.2h.4a.1.1,0,0,0,.1-.1h-.1c-.1-.1-.2,0-.3,0a.1.1,0,0,1,0-.2c.1.1.2.1.4,0h0a.1.1,0,0,0-.1-.1c-.1.1-.3,0-.4,0h-.2c0,.1-.1.2,0,.3h0A.6.6,0,0,0,16.4,3Zm9.1,0h.2c0-.2.1-.3,0-.4s0-.2,0-.3a.1.1,0,0,0-.1-.1c-.1,0-.1.1-.1.2s0,.3-.1.4h-.1c-.1,0-.2-.1-.1-.2s0-.2-.1-.2H25a.6.6,0,0,0-.1.4.4.4,0,0,0,.6.3Zm.4-.6h.3c.1,0,.2,0,.1.1a.6.6,0,0,0,0,.6c0,.1,0,.2.1.2s.1-.2.1-.2V2.5s-.1-.2.1-.1h.3a.1.1,0,0,0-.1-.1h-1A.1.1,0,0,1,25.9,2.4ZM13.7,3c.1,0,.1,0,.1-.1h.6a.1.1,0,0,0-.1-.1h-.4c0-.1,0-.2.2-.2h.2s.2.1.2-.1-.2,0-.2-.1-.3.1-.3,0-.2-.1-.3.1-.1.4-.1.6h0a.1.1,0,0,0,.1.1Zm4.6-.7h.1a.1.1,0,0,0-.1-.1h-.4c-.2.2-.2.4,0,.4l.3.2h.1c.1-.2,0-.3-.2-.3H18c.1-.2.2-.1.3-.2Zm-5.6.4c.1-.1.2-.1.2-.2s-.2-.4-.3-.3-.1.1-.1.2a.4.4,0,0,0,.1.3Zm15.8.2h.2c0-.1,0-.2-.1-.2s-.1-.1-.2-.1-.1.2-.1.3Zm-10.4,0h-.3c-.1,0-.2,0-.2.2s.2,0,.2,0h.3c.1-.1.2-.1.2-.2S18.1,2.8,18.1,2.9ZM6.7,32.1Zm7.8-9.8H12.1v.8h.2c.1.2.3.1.5.1h1.7Zm-4.7.8c.1,0,.3-.1.4,0h1.4v-.8H9.4v.7Zm-.1-1.5H9.5c-.1.1,0,.1.1.1s-.2.1-.1.2a.3.3,0,0,1-.1.2h2.2c0-.1-.1-.2,0-.2s-.2-.4-.3-.4H9.7Zm4.8.3c0-.2-.1-.2-.3-.2h-2v.3h2.3Zm12.2,8.2h-.1l-.3.2h-.2c0-.1,0-.1.1-.2l.4-.2c.2,0,.3-.2.5-.3l.3-.4c.1-.1.1-.1.1-.2h-.2a.8.8,0,0,1-.7.3h-.3c-.1-.1-.1-.3.1-.3H27c.2-.1.4,0,.5-.2h.1c0,.2.1.1.2.1h.3c-.3,0-.5.3-.7.5s0,.1-.1.1h0c0,.1,0,0,.1,0l.4.2c.1,0,.1.1.1.2H28c.1-.1.3-.1.4-.3h.2c-.1-.1-.1-.2,0-.2h.3c.1.1,0,.2,0,.3h-.1c-.2.2-.2.2-.1.4s.4-.2.6-.3h.2l.4-.2c.1,0,.2-.1.3,0v.3s-.1,0,0,.1l.3-.2c.1-.2.2-.3.4-.3s.1,0,.1.1v.3a.5.5,0,0,1,.5-.1c.1,0,.2.2.1.4a.5.5,0,0,0,.4-.2l.6-.5h.3l-.3.2-.2.4a1.3,1.3,0,0,0,1-.4h.1a.1.1,0,0,1,.2,0c0,.1,0,.1-.1.2h.1l.5-.3a.2.2,0,0,1,.3,0,.3.3,0,0,1-.1.2l-.2.3a.1.1,0,0,0,.1.1h.6l-.7.2H34c-.1.2-.1.5-.3.6h-.1c-.1.1-.1.1-.2,0s-.1,0-.1.1h-.1c-.3-.1-.4-.3-.3-.5l.5-.5.4-.2h.1a.1.1,0,0,0,.1-.1c-.1-.1-.1,0-.2,0s-.2.2-.4.1h-.1c-.1-.1-.2-.1-.4,0h-.4c-.1.1-.1,0-.2,0s-.1-.1-.1-.2-.1-.1-.2,0-.1.1-.3.1h-.4v-.2c0-.1.1-.1,0-.1s-.1-.1-.1,0l-.4.2a.1.1,0,0,1-.1.1h-.1a.2.2,0,0,1,0-.3h0l-.7.3c-.2.1-.3,0-.3-.2h-.4a.7.7,0,0,1-.6.1.2.2,0,0,1-.2-.2h-.1l-.3.2h-.3c-.1,0,0-.1,0-.2V30H27c0,.1-.1,0-.1.1s-.1.3-.2.4l-.3.2c-.1.1-.4,0-.5-.1a.8.8,0,0,1,.1-.3l.2.2h.3c0-.1.1-.1.1-.2h.1Zm7,.9h-.1c-.2.1-.3.3-.5.5h.2l.4-.5Zm-3.8-1Zm-.2.2c.1.1.1,0,.1,0s.1-.1.1-.2h-.2ZM27,29.1Zm4.8,3.5c.1.2.2.3.4.3h.6l.5-.2h-.9c-.1.1-.2,0-.2.1a.1.1,0,0,1-.1-.1l.3-.2h0c-.1,0-.3,0-.3.2H32l-.6.2c-.2,0-.3-.1-.2-.2a.2.2,0,0,0,0-.3c.1,0,.1.1.2,0l.3-.2c.1-.1.1-.1.1-.2h-.2c-.1.1-.2.1-.2.3h0c-.1-.1-.2,0-.2.1s-.1.2-.2.2h-.5l-.5.2c-.1,0-.2.1-.2,0s0-.1.1-.2,0-.3-.1-.3h-.7c0,.1.1.1,0,.1h-.2c-.2,0-.3.2-.5.1s-.2,0-.2.1,0,.2-.1.1a.1.1,0,0,0,0,.2h.2a.7.7,0,0,1,.6-.3c0,.1-.2.2-.1.3s.2.1.3,0,.1-.1.2-.2v.2a.2.2,0,0,0,.2.2l.4-.2h.2c0,.1.1.2.2.1l.5-.2c.1-.1.1-.1.1,0s.3.1.5.1.2.1.2-.1h.2Zm-4.2-.7a.5.5,0,0,0-.3.4v.2h.1a.3.3,0,0,0,.1-.2l.6-.4h.1c.1,0,.1,0,.1.1s.2.1.2,0,.1-.1,0-.2,0-.1-.1-.1h-.5c0-.1,0-.1.1-.2s0-.3-.1-.3-.3-.1-.4.1h-.2a.2.2,0,0,0-.2-.2.9.9,0,0,0-.7.3h-.1c0,.1,0,.1.1.1h0c.2,0,.2,0,.2-.1h.5c-.2.2-.4.3-.5.6h-.2c0,.1-.1.2,0,.3s.1-.1.2-.2a.2.2,0,0,0,.2-.2l.2-.3.5-.2h.3s.1.1,0,.1l-.2.4Zm3.5-2.2.3-.3h-.1c-.1-.1-.2,0-.3.1a.4.4,0,0,0,.1.3Zm6.1-3.6c-.1.1,0,.1,0,.2s.1-.1,0-.2Zm-18.4.2Zm0,0Zm1.3,7.9h.1S20.2,34.1,20.1,34.2ZM5.5,22.2c0-.2-.1-.4-.1-.6a.4.4,0,0,0,.1-.3l.2-.2h.6a.7.7,0,0,1,.6.2,1.4,1.4,0,0,1,.2.6.8.8,0,0,1-.2.5c0,.2-.3.2-.4.1H6.4c.1.1.1.2-.1.1H5.9c-.1,0-.2,0-.2-.1S5.6,22.3,5.5,22.2Zm.6,0,.5-.2c.1,0,0-.2,0-.3v-.2L6,21.3c.1.1.1.2,0,.2H5.9C5.8,21.8,6,22.2,6.1,22.2Z" transform="translate(0 6.9)"/></g><path class="f" d="M39.3,6.3c-.1,0-.2,0-.2.2s0-.2-.1-.2a2.7,2.7,0,0,1-.9,0h-.3c-.1-.1-.2.1-.3.1s-.5,0-.7,0H34.4c-.2,0-.2,0-.2.1H32.5c0-.2-.2-.2-.3-.2s-.3.1-.5,0a2.2,2.2,0,0,1-.8,0c-.2-.1-.2,0-.2.2s-.5-.2-.7,0H28.5a.9.9,0,0,1-.7.1c-.1,0-.3.1-.4,0a.1.1,0,0,0-.1.1H25.8c-.1.1-.2.1-.2,0h-.4c-.2.1-.4,0-.6,0s-.3,0-.5,0-.3,0-.3.2H21.6c0-.1,0-.1-.2-.1h-.8a2.2,2.2,0,0,1-.8,0H17.6c0-.1-.2-.1-.3-.1s.1.2,0,.3-.1-.1,0-.2h-.7c-.1-.1-.1,0-.2,0s-.2,0-.2.1-.1-.2-.2-.1H14.2c-.1-.1-.3,0-.5,0h-.9c-.2,0-.3-.1-.5,0h-.4a.5.5,0,0,0-.5-.1H7.2c-.1-.2-.3-.1-.4-.1s-.5-.1-.7,0H3.5c-.2-.1-.4,0-.7,0H2.1A4.9,4.9,0,0,1,2,5.2a6.4,6.4,0,0,0,.2-.7c0-.2.1-.4.1-.7s.1-.4.2-.6l.3-.6c.1-.1.1-.3.2-.4l.2-.3.2-.5A2.1,2.1,0,0,0,3.8.8L4.3.3,4.7.1h9.8c.1.2.3,0,.4,0h.5c.2.1.5-.1.7.1h.1c.1-.2.2-.1.4-.1l.3.4H14.7l-.3.2h-.7l-.6.3h-.4a2.3,2.3,0,0,0-1,.7c0,.1-.1.2,0,.3s.1.3.1.4,0,.1.1.1.1.2.1.3a1,1,0,0,0,.5.4l.5.2c.3.1.6.1.8.3s.4.1.6.1h6.2c.2-.2.4,0,.6-.1h.6c.3,0,.5.1.7-.1h.3c.1,0,.3-.1.4,0h.2c.3-.2.7,0,1-.2h3.3l.6-.2h.2l.5-.2c.3-.1.4-.4.6-.6h0c-.1-.2,0-.5-.2-.7l-.3-.2-.4-.3H27.5L27,1.1,26.1.9H25V.2h.4c.3.2.6,0,.8.1h1.4c.1-.1.2,0,.3.1h5c.2-.2.4,0,.6,0h2a1.1,1.1,0,0,1,.8.1l.6.5c.1,0,.2.2.3.3s.3.2.3.3l.5.7.3.6.3.7c0,.2,0,.3.1.4s.1.2.1.3v.4c.1.2,0,.4.1.6s.1.5.1.7h0C39.3,6,39.2,6.2,39.3,6.3ZM37.5,9.8h.3V9.8C37.7,9.9,37.6,10,37.5,9.8Zm.3,0c.1,0,.1,0,0-.1ZM21.6,6.5h0ZM27,29.1h0Z" transform="translate(0 6.9)"/><g class="g"><path class="h" d="M15.3,4H23a.6.6,0,0,0,.7,0,2.7,2.7,0,0,1,.9,0h.9c.3.1.7-.1,1-.1h.4c.2.1.3,0,.4-.1h.6l.4-.2.6-.2c.2-.1.5-.2.6-.5h.1c-.1-.2,0-.5-.2-.7l-.3-.2-.4-.3H27.5L27,1.1,26.1.9H25V.2h.1c0-.1-.1-.1,0-.1s.1-.2.1-.4h0c.2-.4.4-.7.3-1.1a.1.1,0,0,1,.1-.1v-.2a.4.4,0,0,0,0-.5h.1c0-.2,0-.3-.1-.4v-.2a1.3,1.3,0,0,0-.1-.6c0-.1,0-.2-.1-.2h0c-.1-.2,0-.5-.3-.6h0c0-.2-.2-.4-.3-.6h-.2c0-.2-.1-.2-.2-.2h-.1c.1-.1.1-.2,0-.2l-.2-.2c-.1-.1-.1-.2-.3-.2h-.1a2,2,0,0,0-.9-.5l-.3-.2c-.2,0-.4-.2-.6-.1H21c-.3-.1-.5.2-.8.1h-.3c-.2-.1-.4.1-.5.1H19l-.8.5h0l-.8.8-.7.9c-.1.1-.1.3-.3.4h0a2.9,2.9,0,0,1-.2.9v.7c0,.1,0,.1-.1.2a.4.4,0,0,0,.1.3h0c-.1.1,0,.2,0,.3s.2.3.1.5a.4.4,0,0,0,.1.3c.1.2.1.4.2.5l.3.4H14.7l-.3.2h-.7l-.6.3h-.4c-.4.2-.7.3-.9.7s-.2.2-.1.3.1.3.1.4,0,.1.1.1l.9.4.6.2a3.2,3.2,0,0,0,.9.3Zm13-1.3c0-.1,0-.3.1-.3s.2,0,.2.1.1.1.1.2h-.2Zm-1.2.2h.1c.1,0,.2.1.3,0a.1.1,0,0,0,.1-.1h-.2a.3.3,0,0,1-.3-.3.4.4,0,0,1,.4-.3c.1-.1.2,0,.4,0h-.2c-.1-.1-.2,0-.3.1h.3v.2a.4.4,0,0,1-.1.3h-.6C27,3,27,3,27.1,2.9Zm-1.2-.7h.9a.1.1,0,0,1,.1.1h-.3c-.2-.1-.1.1-.1.1V3s0,.2-.1.2-.1-.1-.1-.2a.6.6,0,0,1,0-.6c.1-.1,0-.1-.1-.1h-.3a.1.1,0,0,0-.1-.1Zm-.9.1h.1c.1,0,.1.1.1.2s0,.2.1.2h.1c.1-.1.2-.3.1-.4s0-.2.1-.2a.1.1,0,0,1,.1.1c0,.1.1.2,0,.3s0,.2,0,.4h-.2a.4.4,0,0,1-.6-.3A.6.6,0,0,1,25,2.3Zm-6.9.8h-.3s-.2.1-.2,0,.1-.2.2-.2h.3c0-.1.1,0,.2,0S18.2,3,18.1,3.1Zm.2-.8c-.1.1-.2,0-.3.2h.1c.2,0,.3.1.2.3h-.1l-.3-.2c-.2,0-.2-.2,0-.4h.4a.1.1,0,0,1,.1.1Zm1.3.2a1.3,1.3,0,0,1-.1.6c0,.1,0,.1-.2.1s-.1-.1-.1-.2,0-.2,0-.3H19c-.1,0-.1.1-.1.2h-.2V2.2c0-.1,0-.1.1-.2s.1,0,.1.1a.4.4,0,0,1,.1.3h0c-.1.1,0,.1,0,.1h.1s.2.1.2-.1.1-.1.1-.2,0-.1,0-.2a.1.1,0,0,1,.1-.1.1.1,0,0,0,.1.1Zm1.8.9h-.3c-.1.1-.2,0-.3,0s-.2-.2-.2-.3a.4.4,0,0,0,.1-.3V2.6c0-.2.1-.2.2-.2s.4-.1.6,0,.2.2.2.3A.9.9,0,0,1,21.4,3.4Zm1.3-.3c-.1.1-.3.2-.4.1s-.3-.4-.1-.6.4-.2.6-.2.2.2.2.4A.3.3,0,0,1,22.7,3.1Zm1.6,0a.2.2,0,0,1-.3,0c-.1-.1-.1-.3-.3-.4v.5h-.1c-.1.1-.2,0-.2-.1a.9.9,0,0,0,0-.7h.4a.1.1,0,0,0,.1.1.3.3,0,0,0,.3.3c0-.1.1-.3,0-.5s0-.2.1-.2.1.1.2.2v.6C24.5,3,24.4,3,24.3,3.1ZM17.4-2c-.1-.2,0-.4,0-.6a1.4,1.4,0,0,1,.2-.6,1.9,1.9,0,0,1,.3-.8l.3-.5.2-.3a2.4,2.4,0,0,1,.8-.6l.7-.4a.8.8,0,0,1,.7-.2h1.3a2,2,0,0,1,.8.4l.8.5.5.7c.1.2.2.3.2.5s.2.3.2.4.2.4.1.6a.1.1,0,0,1,.1.1s.1.1,0,.3v.7a.4.4,0,0,1-.1.3l-.2.5c0,.2-.1.3-.2.5l-.4.6c-.1.4-.5.5-.7.7s-.3.3-.5.3-.4.4-.7.4H20.2l-.3-.2c-.3-.1-.6-.1-.8-.3s-.2-.3-.4-.3L18.4.6h0a.2.2,0,0,0-.2-.2L18,.1l-.3-.7a2.5,2.5,0,0,1-.2-.7.6.6,0,0,0-.1-.4c0-.1-.1-.2,0-.3Zm-.9,4.5c-.1-.1,0-.2,0-.3h.2c.1,0,.3.1.4,0a.1.1,0,0,1,.1.1h0c-.2.1-.3.1-.4,0a.1.1,0,0,0,0,.2c.1,0,.2-.1.4,0h0a.1.1,0,0,1-.1.1h-.4c0,.1,0,.2-.1.2s.4,0,.6,0h0c0,.1,0,.1-.1.1a.7.7,0,0,1-.6-.1.1.1,0,0,1-.1-.1.6.6,0,0,1,.1-.4Zm-1.6.4a1.3,1.3,0,0,0,.1-.6h.4l.4.2a.8.8,0,0,1-.2.4h.2c.1.1.1.2,0,.2s-.1.1-.1,0l-.4-.2c-.1-.1-.1-.1-.1.1s0,.2-.1.2S14.9,3,14.9,2.9Zm-2.2-.2h-.1a.4.4,0,0,1-.1-.3c0-.1,0-.2.1-.2s.3.1.3.3S12.8,2.6,12.7,2.7Zm1.2.1h-.1c0,.1,0,.1-.1.1a.1.1,0,0,1-.1-.1h0c0-.2.1-.4.1-.6s.1-.2.3-.1h.3c0,.1.2,0,.2.1s-.2.1-.2.1h-.2c-.2,0-.2.1-.2.2h.4a.1.1,0,0,1,.1.1h-.5ZM25.3.2ZM4.5,19.2c.1-.2.2-.1.4-.1h.5c.1,0,.2-.1.2,0h.5c0-.1,0-.1.1-.1s-.1.1-.1.2H7.3c.1,0,.2-.2.2-.3s-.1-.3-.1-.4a5.7,5.7,0,0,0,0-1.3,1.1,1.1,0,0,1,.1-.5h0a.5.5,0,0,1,0-.5c0-.3-.1-.6-.1-1a3.4,3.4,0,0,0-.1-1h.1a2.5,2.5,0,0,1-.1-.8v-.2c-.1-.1,0,0,0-.1v-.3a.7.7,0,0,1-.1-.5h0c0-.2-.1-.3-.3-.2H6.6c-.3.2-.6.1-.9.1H.8c0,.1-.1.1-.1.2s.1.2.1.4a1.3,1.3,0,0,0-.1.6.6.6,0,0,1,.1.4,2.2,2.2,0,0,0-.1.8,2.7,2.7,0,0,1,0,.9c0,.2.1.5,0,.7h0a1.1,1.1,0,0,1,0,.8v1.7c0,.3.1.5,0,.7s0,.3.2.4.3-.1.5,0,0-.2.1-.2,0,.1.1.1H4.5Zm2.2-1.8h.1a.1.1,0,0,1-.1.1H6.5c-.2-.1-.3,0-.5.1H5.8l-.2-.2c0-.1,0-.1.1-.2h.1c0,.1.1.1.1,0ZM6.4,15H6.1c-.1-.1-.2.1-.3.1h.3c.1-.1.3,0,.4.1ZM6,12.3h.3l.3.2H6.5c-.1-.1-.3,0-.4.1s-.3-.1-.3-.2S5.9,12.3,6,12.3Zm-.3,1.2H5.6a.1.1,0,0,1-.1-.1h.2Zm-.2,2.9.5-.2h.3c.2,0,.1.1.1.1H6.1c-.1-.2-.3-.1-.4,0H5.5C5.4,16.4,5.5,16.4,5.5,16.4Zm-1.3-4,.3.2c0,.1-.1.1-.1.2s-.2-.2-.2-.3Zm.2,1.4h0Zm-.3,0H3.3l-.5.2H1.7v-.4h.1c.1,0,0,0,0,.1h1l.5-.2h.1a.2.2,0,0,0,.3,0h.2c.1,0,0-.1,0-.1h0C4,13.7,4.1,13.6,4.1,13.8ZM1.5,12.5h.1c.1.1.1.2.2,0h.6a.5.5,0,0,1,.6-.1h.5c.2-.1.3.1.5.1H4c0,.1,0,.1-.1.1s-.4,0-.7,0H2.5c-.1.1-.3.2-.4,0H1.8c-.2.1-.3,0-.3-.2s-.1-.1-.1-.2Zm.1,2.6h.2s0-.2.1-.1.1.1,0,.2H2c.2-.2.4-.2.6-.3H4.3s.1,0,0,.1,0,.1-.1,0H3.5l-.2.2H3c-.2-.2-.3-.2-.5,0l-.4.2H2a.2.2,0,0,0-.4-.1H1.4c0-.1.1-.1.2-.2Zm2.3,2.8H3.7a.1.1,0,0,1-.2,0H2.4c-.2-.1-.3,0-.4.1s-.2.1-.2-.1,0,.2-.1.2h0c.1-.1.1-.2.2,0H3a1.4,1.4,0,0,0,.9.1h0Zm.3-1.4H3.3c-.2.1-.4.1-.5-.1s-.1,0-.2,0H2.1s-.1-.1-.1,0H1.5c-.1-.1-.1-.1-.1-.2H2c0-.1.1,0,.2,0h.3a.2.2,0,0,1,.4.1H4.2ZM37.4,31.3a.4.4,0,0,1-.1-.3c-.1-.1-.1-.3-.2-.3l-.2-.3h-.2l-.4-.4-.4-.3a.1.1,0,0,0-.1-.1l-.5-.2-.5-.2c-.1-.1-.2,0-.2-.1h-.2l-1-.3c0-.1-.1,0-.2-.1h-.4l-.5-.2c-.2,0-.3.1-.5-.1h-.1c-.1.1-.2,0-.3,0h-.2c-.1.1-.2,0-.3-.1h-1a.6.6,0,0,0-.6,0H27.5c-.3.1-.7,0-1,.2l-.7.2h-.3l-.4.2-.5.3-.3.3a2.1,2.1,0,0,0-.6,1c.1.1,0,.2,0,.3a.1.1,0,0,0,.1.1c.1.3.1.6.3.8l.2.3a.8.8,0,0,1,.4.4l.4.3h.1l.7.4.9.4h.3l.4.2h5.4l1-.2h.9l.6-.2h.5l.9-.7.4-.4a.4.4,0,0,1,.2-.4h0C37.3,31.8,37.5,31.6,37.4,31.3ZM31,29.4c.1-.1.2-.2.3-.1h.1l-.3.3h0A.4.4,0,0,1,31,29.4Zm-3.5,2.9a.3.3,0,0,1-.1.2h-.1v-.2a.5.5,0,0,1,.3-.4l.2-.4c.1,0,0-.1,0-.1h-.3l-.5.2-.2.3a.2.2,0,0,1-.2.2c-.1.1-.1.3-.2.2s0-.2,0-.3h.2c.1-.3.3-.4.5-.6h-.5c0,.1,0,.1-.2.1h0c-.1,0-.1,0-.1-.1h.1a.9.9,0,0,1,.7-.3.2.2,0,0,1,.2.2h.2c.1-.2.3-.1.4-.1s.1.2.1.3-.1.1-.1.2h.5c.1,0,.1,0,.1.1s0,.1,0,.2-.2,0-.2,0,0-.1-.1-.1h-.1Zm5.3.4h-.6c-.2,0-.3-.1-.4-.3v-.2h-.2c0,.2-.2.2-.2.1s-.4.1-.5-.1,0-.1-.1,0l-.5.2c-.1.1-.2,0-.2-.1h-.2l-.4.2a.2.2,0,0,1-.2-.2v-.2c-.1.1-.1.2-.2.2s-.2,0-.3,0,.1-.2.1-.3a.7.7,0,0,0-.6.3h-.2a.1.1,0,0,1,0-.2c.1.1.1,0,.1-.1s0-.2.2-.1.3-.1.5-.1h.2c.1,0,0,0,0-.1h.7c.1,0,.1.1.1.3s-.2.2-.1.2.1,0,.2,0l.5-.2H31c.1,0,.1-.1.2-.2s.1-.2.2-.1h0c0-.2.1-.2.2-.3h.2c0,.1,0,.1-.1.2l-.3.2c-.1.1-.1,0-.2,0a.2.2,0,0,1,0,.3c-.1.1,0,.2.2.2l.6-.2h.1c0-.2.2-.2.3-.2h0l-.3.2a.1.1,0,0,0,.1.1c0-.1.1,0,.2-.1h.9Zm2.4-2h-.3l-.7.2H34c-.1.2-.1.5-.3.6h-.1c-.1.1-.1.1-.2,0s-.1,0-.1.1h-.1c-.3,0-.4-.2-.3-.4l.4-.5.5-.2h.1a.1.1,0,0,0,.1-.1c-.1-.1-.1,0-.2,0s-.2.1-.4.1h-.1c-.1-.2-.2-.1-.4,0h-.4c-.1.1-.1,0-.2,0s-.1-.1-.1-.2-.1-.1-.2,0-.1.1-.3.1h-.4v-.2c0-.1.1-.1,0-.2h-.1l-.4.3a.1.1,0,0,1-.1.1h-.1a.2.2,0,0,1,0-.3h0l-.7.3c-.2.1-.3,0-.3-.2h-.4a.7.7,0,0,1-.6.1c-.2,0-.2-.1-.2-.2h-.1l-.3.2h-.3c-.1,0,0-.1,0-.2V30H27c0,.1-.1,0-.1.1s-.1.3-.2.4l-.3.2c-.1.1-.4,0-.5-.1a.8.8,0,0,1,.1-.3l.2.2h.3c0-.1.1-.1.1-.2h0l-.3.2h-.2c0-.1,0-.1.1-.2l.4-.2c.2,0,.3-.2.5-.3l.3-.4c.1-.1.1-.1.1-.2h-.2a.8.8,0,0,1-.7.3h-.3c-.1-.1-.1-.3.1-.3H27c.2-.1.4,0,.5-.2h.1c0,.2.1.1.2.1h.3c-.3,0-.5.3-.7.5s0,.1-.1.2h0c0,.1,0,0,.1,0l.4.2c.1,0,.1.1.1.2H28c.1-.1.3-.1.4-.3h.2c-.1-.1-.1-.2,0-.2h.3c.1.1,0,.2,0,.3h-.1c-.2.2-.2.2-.1.4s.4-.2.6-.3h.2l.4-.2c.1,0,.2-.1.3,0v.3s-.1,0,0,.1l.3-.2c.1-.2.2-.3.4-.3s.1,0,.1.1v.3a.5.5,0,0,1,.5-.1c.1,0,.2.2.1.4a.5.5,0,0,0,.4-.2l.6-.5h.3l-.3.2-.2.4a1.7,1.7,0,0,0,1-.3c0-.1,0-.1.1-.1a.1.1,0,0,1,.2,0c0,.1,0,.1-.1.2h.1l.5-.3a.2.2,0,0,1,.3,0,.3.3,0,0,1-.1.2l-.2.3a.1.1,0,0,0,.1.1h.1c.2-.2.5-.1.7-.2h.1ZM23.5,10h-2c0-.1.1-.2.1-.4s.1-.6.1-.9-.1-.1-.1-.2a5.6,5.6,0,0,0,0-1.3V6.5h2.2s-.1.2,0,.2,0,.1,0,.2a.1.1,0,0,1,0,.2c0,.2.1.5.1.7s0,.4,0,.6h0c.1.1.1.1,0,.2h0c.1.1,0,.2,0,.3s-.1.1,0,.2V10Zm-5.8-.5a.8.8,0,0,1,0-.7c0-.2-.1-.4-.1-.7a4,4,0,0,0,0-1.1V6.4h2c0,.2.1.4,0,.6a.1.1,0,0,0,0,.2V9.5a1.3,1.3,0,0,0,.1.6h-2C17.6,9.8,17.7,9.6,17.7,9.5Zm-5.2.4h-2a.6.6,0,0,0,.1-.4V7.1a2,2,0,0,1,.1-.7h.7a.5.5,0,0,1,.5.1h.4c.1.1.1.1,0,.2s.1.3,0,.5.1.2.1.3a4.8,4.8,0,0,0,0,1.2C12.4,9.1,12.5,9.5,12.5,9.9Zm19.8.1h0c.2-.2.1-.5.1-.7V7.9c.1-.2,0-.3,0-.5a2.8,2.8,0,0,1,.1-.9h1.7v.4c-.1.2,0,.5,0,.7a3.3,3.3,0,0,0,0,1,4.1,4.1,0,0,1,0,1.1V10H32.3Zm-16.9.1h-.7l-.4-.2a1.1,1.1,0,0,1,0-.8c0-.1-.1-.3,0-.5a2.7,2.7,0,0,1,0-.9.3.3,0,0,0-.1-.2V6.4H16c-.1.2,0,.4,0,.6s0,.3,0,.4,0,.4,0,.6v2Zm22.4-.4h0c-.1.1-.2.2-.3,0H36.1a2.7,2.7,0,0,1,0-.9c0-.2-.1-.4,0-.6s-.1-.6,0-.8V6.3h.8c.2,0,.5-.1.7,0s.2-.2.3-.1V9.7ZM8.9,9.1v1H7.2c.1-.1,0-.3,0-.4V6.5H8.9a3.4,3.4,0,0,1-.1,1v.3c0,.2-.1.3-.1.5S8.9,8.8,8.9,9.1ZM29.6,6.4H30c.2-.2.4,0,.7,0v.9c-.1.1,0,.3,0,.4v.4c0,.2-.1.5,0,.7V10H29a7.5,7.5,0,0,0,0-1.5V7c.1-.2,0-.4,0-.6ZM4.1,8.4V7.6c.1-.4,0-.8.1-1.2H5.5V9.2a2.7,2.7,0,0,1,0,.9H4.1ZM27.3,10H25.9V6.5h1.4V10ZM7.9,22.3a2.5,2.5,0,0,0-.1-.8V20H7.5c-.1.1-.2.1-.2.3H7.2c-.1,0,0-.1-.1-.2h0A.1.1,0,0,0,7,20c0-.1,0-.1-.1-.1s-.1,0-.2.1a.1.1,0,0,1-.1.1v.2c-.1,0-.1-.1-.1-.2a.1.1,0,0,1-.1-.1c-.1-.1-.1-.1-.2,0l-.3.3H5.7L5.5,20c0-.1,0-.1-.1-.1s-.1,0-.1.1,0,.1-.1.1l-.2.3L4.7,20a.2.2,0,0,0-.2-.2c-.1,0-.2,0-.1.1v.4c.1.2,0,.4,0,.7v1.8c0,.2-.1.3-.1.4H7.4c.2-.1.3,0,.5,0A2.2,2.2,0,0,1,7.9,22.3Zm-1,0c0,.2-.3.2-.4.1H6.4c.1.1.1.2-.1.1H5.9c-.1,0-.2,0-.2-.1s-.1-.1-.2-.2-.1-.4-.1-.6a.4.4,0,0,0,.1-.3l.2-.2h.6a.7.7,0,0,1,.6.2,1.4,1.4,0,0,1,.2.6A.8.8,0,0,1,6.9,22.3Zm15.1.9H15.6c-.1-.2,0-.5-.1-.8s0-.2.1-.2h.9a2.7,2.7,0,0,0,.9,0h4.3a.3.3,0,0,1,.3.3A2.7,2.7,0,0,1,22,23.2ZM12.6,10.1h0Zm22.7,9.2a.1.1,0,0,1,.1-.1h.7c.1,0,.1,0,.1.1h.1v.5c0,.2.1.4.1.6s0,1-.1,1.5H36a.4.4,0,0,1,.1-.3h.1c-.1,0-.1,0-.1-.1v-2c0-.1-.1-.2-.3-.2h-.5ZM20.4-2.5a.8.8,0,0,1,.2-.4c0-.1,0-.1.1-.1a.1.1,0,0,0,.1.1.1.1,0,0,1,.1-.1c.1-.1.5.1.5.1a.6.6,0,0,1,.1.4c0,.2,0,.3-.1.4a.4.4,0,0,1-.6.2h-.2a.1.1,0,0,1-.1-.1c-.1,0-.1-.1-.1-.2Zm1,5.3c-.1.1,0,.2-.1.3H21c-.1,0-.1,0-.1-.1s.1-.1,0-.1.1-.2,0-.3h.4a.1.1,0,0,1,.1.1h0Zm-6.2-.2a.4.4,0,0,1,.1-.3.5.5,0,0,1,.4.2Zm7.5,0v.2h-.2a.1.1,0,0,1-.2,0c0-.1,0-.1.1-.2s0-.1.1-.1Zm13,12.5v-.7c0-.1,0-.2.1-.2v.2a1.7,1.7,0,0,0,.1.7v1.1a.1.1,0,0,1-.1.1h-.1V16h0ZM33.7,31h0l-.4.5h-.2c.2-.2.3-.4.5-.5Zm-3.8-1Zm0,0c0,.1,0,.1-.1.2s0,.1-.1,0h.2Zm-1.4-.1h0Zm1.4.1Zm0,0Zm0,0ZM6.6,21.7c0,.1.1.3,0,.3l-.5.2c-.1,0-.3-.4-.2-.6H6c.1,0,.1-.1,0-.2l.6.2Z" transform="translate(0 6.9)"/></g></svg>