<svg xmlns="http://www.w3.org/2000/svg" xmlns:xlink="http://www.w3.org/1999/xlink" viewBox="0 0 45.36 53.15"><defs><style>.cls-1{fill:none;}.cls-2{fill:#fff;}.cls-3{fill:#40332a;}.cls-4{fill:#f7e9c7;}.cls-5{clip-path:url(#clip-path);}.cls-6{clip-path:url(#clip-path-2);}.cls-7{clip-path:url(#clip-path-3);}.cls-8{fill:#81a45d;}.cls-9{clip-path:url(#clip-path-4);}.cls-10{clip-path:url(#clip-path-5);}.cls-11{clip-path:url(#clip-path-6);}.cls-12{clip-path:url(#clip-path-7);}</style><clipPath id="clip-path" transform="translate(-0.04 0.01)"><rect class="cls-1" x="7.02" y="43.72" width="9.52" height="9.39"/></clipPath><clipPath id="clip-path-2" transform="translate(-0.04 0.01)"><rect class="cls-1" x="21.82" y="39.85" width="13.39" height="13.27"/></clipPath><clipPath id="clip-path-3" transform="translate(-0.04 0.01)"><rect class="cls-1" y="5.3" width="10.54" height="8.11"/></clipPath><clipPath id="clip-path-4" transform="translate(-0.04 0.01)"><rect class="cls-1" y="5.3" width="10.89" height="8.46"/></clipPath><clipPath id="clip-path-5" transform="translate(-0.04 0.01)"><rect class="cls-1" y="13.06" width="4.2" height="3.88"/></clipPath><clipPath id="clip-path-6" transform="translate(-0.04 0.01)"><rect class="cls-1" y="12.7" width="4.2" height="4.23"/></clipPath><clipPath id="clip-path-7" transform="translate(-0.04 0.01)"><rect class="cls-1" x="8.07" width="26.08" height="5.66"/></clipPath></defs><g id="Calque_2" data-name="Calque 2"><g id="Calque_1-2" data-name="Calque 1"><path class="cls-2" d="M11.88,26.54H10.69L7.92,12.44H9.11l2.77,14.1" transform="translate(-0.04 0.01)"/><path class="cls-3" d="M11.88,26.54v-.17h-1L8.13,12.61H9l2.75,14,.17,0v0l.17,0L9.25,12.26H7.71l2.84,14.46h1.54l0-.21-.17,0" transform="translate(-0.04 0.01)"/><path class="cls-2" d="M30.45,26.54h1.18l2.77-14.1H33.22l-2.77,14.1" transform="translate(-0.04 0.01)"/><path class="cls-3" d="M30.45,26.54v.18h1.32l2.84-14.46H33.07L30.23,26.72h.22v-.18l.17,0,2.74-14h.83l-2.7,13.76h-1v.17l.17,0-.17,0" transform="translate(-0.04 0.01)"/><path class="cls-2" d="M43.37,28.22,32.62,35V33.52l10.75-6.78v1.48" transform="translate(-0.04 0.01)"/><path class="cls-3" d="M43.37,28.22l0-.08-10.61,6.7V33.57L43.28,26.9v1.32h.09l0-.08,0,.08h.08V26.59L32.53,33.48v1.67l10.92-6.88v-.05h-.08" transform="translate(-0.04 0.01)"/><path class="cls-4" d="M34.79,46.8h-27V27.51h27V46.8" transform="translate(-0.04 0.01)"/><path class="cls-3" d="M34.79,46.8v-.18H7.94V27.69H34.62V46.8h.17v0H35V27.34H7.59V47H35V46.8h-.18" transform="translate(-0.04 0.01)"/><path class="cls-2" d="M36.85,28.14H5.71v-3H36.85v3" transform="translate(-0.04 0.01)"/><path class="cls-3" d="M36.85,28.14V28h-31V25.32H36.67v2.82h.18v0H37V25H5.54v3.35H37v-.18h-.17" transform="translate(-0.04 0.01)"/><g class="cls-5"><path class="cls-2" d="M11.74,52.11a3.64,3.64,0,1,1,3.63-3.64A3.64,3.64,0,0,1,11.74,52.11Zm0-8.22a4.59,4.59,0,1,0,4.58,4.58,4.59,4.59,0,0,0-4.58-4.58" transform="translate(-0.04 0.01)"/><path class="cls-3" d="M11.74,52.11V52a3.55,3.55,0,1,1,2.51-1,3.54,3.54,0,0,1-2.51,1v.18A3.73,3.73,0,1,0,8,48.47a3.73,3.73,0,0,0,3.72,3.73Zm0-8.22V43.8a4.67,4.67,0,1,0,4.67,4.67,4.67,4.67,0,0,0-4.67-4.67V44a4.5,4.5,0,0,1,0,9,4.51,4.51,0,0,1-4.5-4.5A4.49,4.49,0,0,1,11.74,44v-.09" transform="translate(-0.04 0.01)"/></g><path class="cls-2" d="M12.92,48.47a1.19,1.19,0,1,1-1.18-1.18,1.18,1.18,0,0,1,1.18,1.18" transform="translate(-0.04 0.01)"/><path class="cls-3" d="M12.92,48.47h-.08a1.1,1.1,0,0,1-.33.78,1.06,1.06,0,0,1-.77.32,1.1,1.1,0,1,1,0-2.19,1.06,1.06,0,0,1,.77.32,1.09,1.09,0,0,1,.33.77H13a1.28,1.28,0,1,0-1.27,1.28A1.27,1.27,0,0,0,13,48.47h-.09" transform="translate(-0.04 0.01)"/><path class="cls-3" d="M11.56,44.84v7.84a.18.18,0,0,0,.18.18.18.18,0,0,0,.17-.18V44.84a.18.18,0,0,0-.17-.18.18.18,0,0,0-.18.18" transform="translate(-0.04 0.01)"/><path class="cls-3" d="M15.66,48.59H7.82a.17.17,0,1,0,0,.34h7.84a.17.17,0,0,0,0-.34" transform="translate(-0.04 0.01)"/><path class="cls-2" d="M9,46l5.54,5.54" transform="translate(-0.04 0.01)"/><path class="cls-3" d="M8.84,46.11l5.55,5.55a.18.18,0,0,0,.24,0,.18.18,0,0,0,0-.25L9.09,45.86a.2.2,0,0,0-.25,0,.18.18,0,0,0,0,.25" transform="translate(-0.04 0.01)"/><path class="cls-2" d="M14.51,46,9,51.53" transform="translate(-0.04 0.01)"/><path class="cls-3" d="M14.39,45.86,8.84,51.41a.18.18,0,0,0,0,.25.2.2,0,0,0,.25,0l5.54-5.55a.18.18,0,0,0,0-.25.18.18,0,0,0-.24,0" transform="translate(-0.04 0.01)"/><g class="cls-6"><path class="cls-2" d="M28.54,51.7a5.19,5.19,0,1,1,5.19-5.18A5.18,5.18,0,0,1,28.54,51.7Zm0-11.72a6.54,6.54,0,1,0,6.54,6.54A6.54,6.54,0,0,0,28.54,40" transform="translate(-0.04 0.01)"/><path class="cls-3" d="M28.54,51.7v-.08a5.1,5.1,0,0,1,0-10.2,5.1,5.1,0,0,1,0,10.2v.17a5.28,5.28,0,1,0-5.27-5.27,5.27,5.27,0,0,0,5.27,5.27Zm0-11.72v-.09a6.63,6.63,0,1,0,6.63,6.63,6.62,6.62,0,0,0-6.63-6.63v.18A6.45,6.45,0,1,1,24,42a6.45,6.45,0,0,1,4.56-1.89V40" transform="translate(-0.04 0.01)"/></g><path class="cls-2" d="M30.23,46.52a1.69,1.69,0,1,1-1.69-1.69,1.69,1.69,0,0,1,1.69,1.69" transform="translate(-0.04 0.01)"/><path class="cls-3" d="M30.23,46.52h-.08a1.61,1.61,0,0,1-3.21,0,1.62,1.62,0,0,1,.47-1.14,1.61,1.61,0,0,1,2.27,0,1.62,1.62,0,0,1,.47,1.14h.17a1.78,1.78,0,1,0-1.78,1.78,1.78,1.78,0,0,0,1.78-1.78h-.09" transform="translate(-0.04 0.01)"/><path class="cls-3" d="M28.37,41.33V52.52a.18.18,0,0,0,.17.18.18.18,0,0,0,.18-.18V41.33a.18.18,0,0,0-.18-.17.18.18,0,0,0-.17.17" transform="translate(-0.04 0.01)"/><path class="cls-3" d="M34.14,46.75H23a.18.18,0,0,0-.18.18.18.18,0,0,0,.18.17H34.14a.18.18,0,0,0,.17-.17.18.18,0,0,0-.17-.18" transform="translate(-0.04 0.01)"/><path class="cls-2" d="M24.59,43l7.91,7.91" transform="translate(-0.04 0.01)"/><path class="cls-3" d="M24.46,43.09,32.38,51a.18.18,0,0,0,.24,0,.18.18,0,0,0,0-.25l-7.91-7.91a.18.18,0,0,0-.25,0,.16.16,0,0,0,0,.24" transform="translate(-0.04 0.01)"/><path class="cls-2" d="M32.5,43l-7.91,7.91" transform="translate(-0.04 0.01)"/><path class="cls-3" d="M32.38,42.85l-7.92,7.91a.18.18,0,0,0,0,.25.2.2,0,0,0,.25,0l7.91-7.92a.17.17,0,1,0-.24-.24" transform="translate(-0.04 0.01)"/><path class="cls-2" d="M44.53,28.62h-4.3a.71.71,0,0,1-.7-.7v-.5a.71.71,0,0,1,.7-.7h4.3a.71.71,0,0,1,.7.7v.5a.71.71,0,0,1-.7.7" transform="translate(-0.04 0.01)"/><path class="cls-3" d="M44.53,28.62v-.18h-4.3a.51.51,0,0,1-.52-.52v-.5a.56.56,0,0,1,.15-.37.51.51,0,0,1,.37-.15h4.3a.51.51,0,0,1,.37.15.56.56,0,0,1,.15.37v.5a.51.51,0,0,1-.52.52v.35a.87.87,0,0,0,.87-.87v-.5a.87.87,0,0,0-.87-.87h-4.3a.87.87,0,0,0-.87.87v.5a.87.87,0,0,0,.87.87h4.3v-.17" transform="translate(-0.04 0.01)"/><g class="cls-7"><path class="cls-8" d="M8.07,5.54.31,13.27H4.06l6.35-7.73H8.07" transform="translate(-0.04 0.01)"/></g><g class="cls-9"><path class="cls-3" d="M8.07,5.54,8,5.42.19,13.15a.18.18,0,0,0,.12.3H4.06a.17.17,0,0,0,.14-.06l6.35-7.74a.17.17,0,0,0,0-.18.18.18,0,0,0-.16-.1H8.07a.17.17,0,0,0-.12,0l.12.12v.18h2L4,13.1H.74L8.19,5.67l-.12-.13v0" transform="translate(-0.04 0.01)"/></g><path class="cls-2" d="M10.41,5.54,4.06,13.27H7.82l4.94-7.73H10.41" transform="translate(-0.04 0.01)"/><path class="cls-3" d="M10.41,5.54l-.13-.11L3.93,13.16a.19.19,0,0,0,0,.19.18.18,0,0,0,.15.1H7.82A.19.19,0,0,0,8,13.37L12.9,5.64a.17.17,0,0,0,0-.18.16.16,0,0,0-.15-.09H10.41a.16.16,0,0,0-.13.06l.13.11v.18h2L7.72,13.1H4.44l6.11-7.45-.14-.11v0" transform="translate(-0.04 0.01)"/><path class="cls-8" d="M12.76,5.54,7.82,13.27h3.75L15.1,5.54H12.76" transform="translate(-0.04 0.01)"/><path class="cls-3" d="M12.76,5.54l-.15-.09L7.67,13.18a.17.17,0,0,0,0,.18.17.17,0,0,0,.15.09h3.75a.18.18,0,0,0,.16-.1l3.53-7.73a.2.2,0,0,0,0-.17.19.19,0,0,0-.15-.08H12.76a.18.18,0,0,0-.15.08l.15.09v.18h2.07L11.46,13.1H8.14L12.9,5.64l-.14-.1v0" transform="translate(-0.04 0.01)"/><path class="cls-2" d="M15.1,5.54l-3.53,7.73h3.76l2.11-7.73H15.1" transform="translate(-0.04 0.01)"/><path class="cls-3" d="M15.1,5.54l-.16-.07L11.41,13.2a.2.2,0,0,0,0,.17.19.19,0,0,0,.15.08h3.76a.17.17,0,0,0,.16-.13l2.12-7.73a.2.2,0,0,0,0-.15.15.15,0,0,0-.14-.07H15.1a.18.18,0,0,0-.16.1l.16.07v.18h2.11l-2,7.38H11.84l3.42-7.48-.16-.08v0" transform="translate(-0.04 0.01)"/><path class="cls-8" d="M17.44,5.54l-2.11,7.73h3.75l.7-7.73H17.44" transform="translate(-0.04 0.01)"/><path class="cls-3" d="M17.44,5.54l-.17,0-2.11,7.73a.14.14,0,0,0,0,.15.17.17,0,0,0,.14.07h3.75a.17.17,0,0,0,.17-.16L20,5.56a.19.19,0,0,0-.05-.13.16.16,0,0,0-.13-.06H17.44a.17.17,0,0,0-.17.13l.17,0v.18h2.15l-.67,7.38H15.55l2.06-7.51-.17,0v0" transform="translate(-0.04 0.01)"/><path class="cls-2" d="M19.78,5.54l-.7,7.73h3.75l-.7-7.73H19.78" transform="translate(-0.04 0.01)"/><path class="cls-3" d="M19.78,5.54h-.17l-.71,7.73a.21.21,0,0,0,.05.13.16.16,0,0,0,.13.06h3.75a.16.16,0,0,0,.13-.06.16.16,0,0,0,0-.13l-.7-7.73a.17.17,0,0,0-.17-.16H19.78a.17.17,0,0,0-.17.16h.17v.18H22l.67,7.38H19.27L20,5.56l-.18,0v0" transform="translate(-0.04 0.01)"/><path class="cls-8" d="M22.13,5.54l.7,7.73h3.75L24.47,5.54H22.13" transform="translate(-0.04 0.01)"/><path class="cls-3" d="M22.13,5.54l-.18,0,.71,7.73a.17.17,0,0,0,.17.16h3.75a.17.17,0,0,0,.14-.07.14.14,0,0,0,0-.15L24.64,5.5a.17.17,0,0,0-.17-.13H22.13a.16.16,0,0,0-.13.06.15.15,0,0,0-.05.13l.18,0v.18h2.2l2,7.38H23L22.3,5.53h-.17v0" transform="translate(-0.04 0.01)"/><path class="cls-2" d="M24.47,5.54l2.11,7.73h3.76L26.81,5.54H24.47" transform="translate(-0.04 0.01)"/><path class="cls-3" d="M24.47,5.54l-.17,0,2.12,7.73a.17.17,0,0,0,.16.13h3.76a.16.16,0,0,0,.14-.08.17.17,0,0,0,0-.17L27,5.47a.18.18,0,0,0-.16-.1H24.47a.15.15,0,0,0-.14.07.2.2,0,0,0,0,.15l.17,0v.18H26.7l3.37,7.38H26.72L24.64,5.5l-.17,0v0" transform="translate(-0.04 0.01)"/><path class="cls-8" d="M26.81,5.54l3.53,7.73h3.75L29.15,5.54H26.81" transform="translate(-0.04 0.01)"/><path class="cls-3" d="M26.81,5.54l-.16.08,3.53,7.73a.18.18,0,0,0,.16.1h3.75a.19.19,0,0,0,.15-.09.19.19,0,0,0,0-.18L29.3,5.45a.18.18,0,0,0-.15-.08H26.81a.18.18,0,0,0-.15.08.2.2,0,0,0,0,.17l.16-.08v.18h2.25l4.71,7.38H30.45L27,5.47l-.16.07v0" transform="translate(-0.04 0.01)"/><path class="cls-2" d="M29.15,5.54l4.94,7.73h3.75L31.49,5.54H29.15" transform="translate(-0.04 0.01)"/><path class="cls-3" d="M29.15,5.54l-.14.1,4.93,7.73a.18.18,0,0,0,.15.08h3.75a.18.18,0,0,0,.16-.1.19.19,0,0,0,0-.19L31.63,5.43a.17.17,0,0,0-.14-.06H29.15a.16.16,0,0,0-.15.09.17.17,0,0,0,0,.18l.14-.1v.18h2.26l6.06,7.38H34.19L29.3,5.45l-.15.09v0" transform="translate(-0.04 0.01)"/><path class="cls-8" d="M31.49,5.54l6.35,7.73H41.6L33.84,5.54H31.49" transform="translate(-0.04 0.01)"/><path class="cls-3" d="M31.49,5.54l-.13.11,6.35,7.74a.16.16,0,0,0,.13.06H41.6a.18.18,0,0,0,.12-.3L34,5.42a.18.18,0,0,0-.12,0H31.49a.18.18,0,0,0-.15.1.17.17,0,0,0,0,.18l.13-.11v.18h2.28l7.4,7.38H37.93l-6.3-7.67-.14.11v0" transform="translate(-0.04 0.01)"/><g class="cls-10"><path class="cls-8" d="M.22,13.23a2.44,2.44,0,0,0,0,.27c0,1.72.84,3.11,1.87,3.11S4,15.22,4,13.5c0-.09,0-.18,0-.27H.22" transform="translate(-0.04 0.01)"/></g><g class="cls-11"><path class="cls-3" d="M.22,13.23H.05a2.62,2.62,0,0,0,0,.28,4.49,4.49,0,0,0,.57,2.29,2.49,2.49,0,0,0,.64.72,1.47,1.47,0,0,0,.83.27,1.47,1.47,0,0,0,.83-.27,2.74,2.74,0,0,0,.88-1.21,4.81,4.81,0,0,0,.33-1.8,2.62,2.62,0,0,0,0-.28.18.18,0,0,0-.17-.17H.22a.18.18,0,0,0-.17.17H.22v.17H3.94v-.17H3.76a2.26,2.26,0,0,1,0,.26,4.17,4.17,0,0,1-.52,2.11,2,2,0,0,1-.54.61,1.08,1.08,0,0,1-.63.21,1.08,1.08,0,0,1-.63-.21,2.42,2.42,0,0,1-.76-1,4.52,4.52,0,0,1-.3-1.67,2.26,2.26,0,0,1,0-.26H.22v0" transform="translate(-0.04 0.01)"/></g><path class="cls-2" d="M4,13.23a2.44,2.44,0,0,0,0,.27c0,1.72.83,3.11,1.87,3.11s1.86-1.39,1.86-3.11v-.27H4" transform="translate(-0.04 0.01)"/><path class="cls-3" d="M4,13.23H3.78c0,.09,0,.19,0,.28a4.49,4.49,0,0,0,.58,2.29,2.35,2.35,0,0,0,.64.72,1.47,1.47,0,0,0,.83.27,1.44,1.44,0,0,0,.82-.27,2.69,2.69,0,0,0,.89-1.21,4.81,4.81,0,0,0,.33-1.8,2.62,2.62,0,0,0,0-.28.18.18,0,0,0-.17-.17H4a.18.18,0,0,0-.18.17H4v.17H7.68v-.17H7.5a2.26,2.26,0,0,1,0,.26A4.17,4.17,0,0,1,7,15.61a2.06,2.06,0,0,1-.55.61,1,1,0,0,1-1.25,0,2.35,2.35,0,0,1-.76-1,4.52,4.52,0,0,1-.31-1.67c0-.09,0-.17,0-.26H4v0" transform="translate(-0.04 0.01)"/><path class="cls-8" d="M7.79,13.23v.27c0,1.72.83,3.11,1.86,3.11s1.87-1.39,1.87-3.11a2.44,2.44,0,0,0,0-.27H7.79" transform="translate(-0.04 0.01)"/><path class="cls-3" d="M7.79,13.23H7.62a2.62,2.62,0,0,0,0,.28,4.59,4.59,0,0,0,.57,2.29,2.64,2.64,0,0,0,.64.72,1.41,1.41,0,0,0,1.66,0,2.74,2.74,0,0,0,.88-1.21,4.81,4.81,0,0,0,.34-1.8c0-.09,0-.19,0-.28a.18.18,0,0,0-.18-.17H7.79a.18.18,0,0,0-.17.17h.17v.17h3.72v-.17h-.17c0,.09,0,.17,0,.26a4.16,4.16,0,0,1-.53,2.11,1.91,1.91,0,0,1-.54.61,1.08,1.08,0,0,1-.63.21A1.05,1.05,0,0,1,9,16.22a2.35,2.35,0,0,1-.76-1A4.32,4.32,0,0,1,8,13.5a2.26,2.26,0,0,1,0-.26H7.79v0" transform="translate(-0.04 0.01)"/><path class="cls-2" d="M11.53,13.23a2.44,2.44,0,0,0,0,.27c0,1.72.84,3.11,1.87,3.11s1.87-1.39,1.87-3.11c0-.09,0-.18,0-.27H11.53" transform="translate(-0.04 0.01)"/><path class="cls-3" d="M11.53,13.23h-.17a2.62,2.62,0,0,0,0,.28,4.49,4.49,0,0,0,.57,2.29,2.49,2.49,0,0,0,.64.72,1.41,1.41,0,0,0,1.66,0,2.74,2.74,0,0,0,.88-1.21,4.81,4.81,0,0,0,.33-1.8,2.62,2.62,0,0,0,0-.28.18.18,0,0,0-.17-.17H11.53a.18.18,0,0,0-.17.17h.17v.17h3.72v-.17h-.18a2.26,2.26,0,0,1,0,.26,4.17,4.17,0,0,1-.52,2.11,2.18,2.18,0,0,1-.54.61,1.05,1.05,0,0,1-1.26,0,2.35,2.35,0,0,1-.76-1,4.52,4.52,0,0,1-.3-1.67v-.26h-.17v0" transform="translate(-0.04 0.01)"/><path class="cls-8" d="M15.33,13.23v.27c0,1.72.83,3.11,1.86,3.11s1.87-1.39,1.87-3.11a2.44,2.44,0,0,0,0-.27H15.33" transform="translate(-0.04 0.01)"/><path class="cls-3" d="M15.33,13.23h-.17a2.62,2.62,0,0,0,0,.28,4.59,4.59,0,0,0,.57,2.29,2.64,2.64,0,0,0,.64.72,1.49,1.49,0,0,0,.83.27,1.47,1.47,0,0,0,.83-.27,2.74,2.74,0,0,0,.88-1.21,4.81,4.81,0,0,0,.34-1.8c0-.09,0-.19,0-.28a.18.18,0,0,0-.18-.17H15.33a.18.18,0,0,0-.17.17h.17v.17h3.72v-.17h-.17c0,.09,0,.17,0,.26a4.16,4.16,0,0,1-.53,2.11,2,2,0,0,1-.54.61,1.08,1.08,0,0,1-.63.21,1.05,1.05,0,0,1-.62-.21,2.35,2.35,0,0,1-.76-1,4.32,4.32,0,0,1-.31-1.67,2.26,2.26,0,0,1,0-.26h-.18v0" transform="translate(-0.04 0.01)"/><path class="cls-2" d="M19.07,13.23c0,.09,0,.18,0,.27,0,1.72.84,3.11,1.87,3.11s1.87-1.39,1.87-3.11c0-.09,0-.18,0-.27H19.07" transform="translate(-0.04 0.01)"/><path class="cls-3" d="M19.07,13.23h-.18v.28a4.49,4.49,0,0,0,.57,2.29,2.49,2.49,0,0,0,.64.72,1.41,1.41,0,0,0,1.66,0,2.74,2.74,0,0,0,.88-1.21A4.81,4.81,0,0,0,23,13.5a2.62,2.62,0,0,0,0-.28.18.18,0,0,0-.17-.17H19.07a.19.19,0,0,0-.18.17h.18v.17h3.72v-.17h-.18a2.26,2.26,0,0,1,0,.26,4.17,4.17,0,0,1-.52,2.11,2.18,2.18,0,0,1-.54.61,1.05,1.05,0,0,1-1.26,0,2.35,2.35,0,0,1-.76-1,4.52,4.52,0,0,1-.3-1.67v-.26h-.17v0" transform="translate(-0.04 0.01)"/><path class="cls-8" d="M22.91,13.23a2.44,2.44,0,0,0,0,.27c0,1.72.83,3.11,1.87,3.11s1.86-1.39,1.86-3.11v-.27H22.91" transform="translate(-0.04 0.01)"/><path class="cls-3" d="M22.91,13.23h-.18c0,.09,0,.19,0,.28a4.49,4.49,0,0,0,.58,2.29,2.35,2.35,0,0,0,.64.72,1.47,1.47,0,0,0,.83.27,1.44,1.44,0,0,0,.82-.27,2.69,2.69,0,0,0,.89-1.21,4.81,4.81,0,0,0,.33-1.8c0-.09,0-.19,0-.28a.18.18,0,0,0-.17-.17H22.91a.18.18,0,0,0-.18.17h.18v.17h3.72v-.17h-.18a2.26,2.26,0,0,1,0,.26,4.17,4.17,0,0,1-.52,2.11,2.06,2.06,0,0,1-.55.61,1,1,0,0,1-1.25,0,2.35,2.35,0,0,1-.76-1,4.52,4.52,0,0,1-.31-1.67c0-.09,0-.17,0-.26h-.17v0" transform="translate(-0.04 0.01)"/><path class="cls-2" d="M26.64,13.23c0,.09,0,.18,0,.27,0,1.72.84,3.11,1.87,3.11s1.87-1.39,1.87-3.11a2.44,2.44,0,0,0,0-.27H26.64" transform="translate(-0.04 0.01)"/><path class="cls-3" d="M26.64,13.23h-.17a2.62,2.62,0,0,0,0,.28A4.49,4.49,0,0,0,27,15.79a2.52,2.52,0,0,0,.65.72,1.44,1.44,0,0,0,.82.27,1.47,1.47,0,0,0,.83-.27,2.74,2.74,0,0,0,.88-1.21,4.81,4.81,0,0,0,.34-1.8c0-.09,0-.19,0-.28a.18.18,0,0,0-.18-.17H26.64a.18.18,0,0,0-.17.17h.17v.17h3.72v-.17h-.17c0,.09,0,.17,0,.26a4.16,4.16,0,0,1-.53,2.11,2,2,0,0,1-.54.61,1.08,1.08,0,0,1-.63.21,1.05,1.05,0,0,1-.62-.21,2.44,2.44,0,0,1-.77-1,4.52,4.52,0,0,1-.3-1.67,2.26,2.26,0,0,1,0-.26h-.18v0" transform="translate(-0.04 0.01)"/><path class="cls-8" d="M30.38,13.23a2.44,2.44,0,0,0,0,.27c0,1.72.84,3.11,1.87,3.11s1.87-1.39,1.87-3.11c0-.09,0-.18,0-.27H30.38" transform="translate(-0.04 0.01)"/><path class="cls-3" d="M30.38,13.23H30.2v.28a4.49,4.49,0,0,0,.57,2.29,2.49,2.49,0,0,0,.64.72,1.41,1.41,0,0,0,1.66,0A2.74,2.74,0,0,0,34,15.3a4.81,4.81,0,0,0,.33-1.8,2.62,2.62,0,0,0,0-.28.18.18,0,0,0-.17-.17H30.38a.19.19,0,0,0-.18.17h.18v.17H34.1v-.17h-.18a2.26,2.26,0,0,1,0,.26,4.17,4.17,0,0,1-.52,2.11,2.18,2.18,0,0,1-.54.61,1,1,0,0,1-1.26,0,2.35,2.35,0,0,1-.76-1,4.52,4.52,0,0,1-.3-1.67v-.26h-.17v0" transform="translate(-0.04 0.01)"/><path class="cls-2" d="M34.12,13.23a2.44,2.44,0,0,0,0,.27c0,1.72.83,3.11,1.87,3.11s1.86-1.39,1.86-3.11v-.27H34.12" transform="translate(-0.04 0.01)"/><path class="cls-3" d="M34.12,13.23h-.18c0,.09,0,.19,0,.28a4.59,4.59,0,0,0,.57,2.29,2.52,2.52,0,0,0,.65.72,1.4,1.4,0,0,0,1.65,0,2.84,2.84,0,0,0,.89-1.21A4.81,4.81,0,0,0,38,13.5c0-.09,0-.19,0-.28a.18.18,0,0,0-.17-.17H34.12a.18.18,0,0,0-.18.17h.18v.17h3.72v-.17h-.18a2.26,2.26,0,0,1,0,.26,4.17,4.17,0,0,1-.52,2.11,2.06,2.06,0,0,1-.55.61,1,1,0,0,1-1.25,0,2.35,2.35,0,0,1-.76-1,4.52,4.52,0,0,1-.31-1.67c0-.09,0-.17,0-.26h-.17v0" transform="translate(-0.04 0.01)"/><path class="cls-8" d="M38,13.23c0,.09,0,.18,0,.27,0,1.72.84,3.11,1.87,3.11s1.87-1.39,1.87-3.11a2.44,2.44,0,0,0,0-.27H38" transform="translate(-0.04 0.01)"/><path class="cls-3" d="M38,13.23h-.17a2.62,2.62,0,0,0,0,.28,4.49,4.49,0,0,0,.57,2.29,2.52,2.52,0,0,0,.65.72,1.41,1.41,0,0,0,.82.27,1.47,1.47,0,0,0,.83-.27,2.74,2.74,0,0,0,.88-1.21,4.81,4.81,0,0,0,.33-1.8v-.28a.18.18,0,0,0-.18-.17H38a.18.18,0,0,0-.17.17H38v.17h3.72v-.17H41.5v.26A4.07,4.07,0,0,1,41,15.61a2,2,0,0,1-.54.61,1,1,0,0,1-1.26,0,2.51,2.51,0,0,1-.76-1,4.52,4.52,0,0,1-.3-1.67,2.26,2.26,0,0,1,0-.26H38v0" transform="translate(-0.04 0.01)"/><path class="cls-4" d="M32,.17H10.05A1.68,1.68,0,0,0,8.36,1.86V5.35H33.68V1.86A1.69,1.69,0,0,0,32,.17" transform="translate(-0.04 0.01)"/><g class="cls-12"><path class="cls-3" d="M32,.17V0H10.05A1.87,1.87,0,0,0,8.18,1.86V5.52H33.85V1.86A1.87,1.87,0,0,0,32,0V.34a1.48,1.48,0,0,1,1.07.45,1.51,1.51,0,0,1,.44,1.07V5.17h-25V1.86A1.48,1.48,0,0,1,9,.79,1.48,1.48,0,0,1,10.05.34H32V.17" transform="translate(-0.04 0.01)"/></g></g></g></svg>